<svg data-name="Capa 1" xmlns="http://www.w3.org/2000/svg" viewBox="0 0 20 20">
    <path fill="#ffffff" d="M9.65 5a.3.3 0 0 0 0 .4l.3.3a.28.28 0 0 0 .4-.4l-.3-.3a.3.3 0 0 0-.4 0zM9.1 4.1l.3.3a.28.28 0 1 0 .4-.4l-.3-.3a.28.28 0 0 0-.4.4zM8.84 6.69a.28.28 0 0 0 .4-.4L8.94 6a.28.28 0 1 0-.4.4zM9 5.38A.32.32 0 0 0 9 5l-.3-.3a.33.33 0 0 0-.4 0 .32.32 0 0 0 0 .41l.3.3a.33.33 0 0 0 .4-.03z"/>
    <path fill="#ffffff" d="M17.6 9H4V3.1A1 1 0 0 1 5 2a.87.87 0 0 1 .8.4 1.87 1.87 0 0 0 0 2.6l.2.2a.6.6 0 0 0 .8 0l2.3-2.3a.6.6 0 0 0 0-.8l-.2-.2a1.82 1.82 0 0 0-2.3-.2A2 2 0 0 0 5 1a2.09 2.09 0 0 0-2 2.1V9h-.5A1.47 1.47 0 0 0 1 10.5a1.5 1.5 0 0 0 1 1.4V14a2.93 2.93 0 0 0 2.5 3h.19l-.64 1.28a.51.51 0 0 0 .23.67.54.54 0 0 0 .22.05.5.5 0 0 0 .5-.28L5.81 17h8.38l.86 1.72a.5.5 0 0 0 .45.28.54.54 0 0 0 .22-.05.51.51 0 0 0 .23-.67L15.31 17h.19a2.91 2.91 0 0 0 2.5-2.9V12a1.61 1.61 0 0 0 1-1.4A1.48 1.48 0 0 0 17.6 9zm-11-5.8l.6-.6a.76.76 0 0 1 .5-.2.37.37 0 0 1 .3.1L6.5 4.1a.63.63 0 0 1 .1-.9zM17 14a2 2 0 0 1-2 2H5.1A2.05 2.05 0 0 1 3 13.9V12h14zm.5-3h-15a.5.5 0 0 1 0-1h15a.47.47 0 0 1 .5.5.54.54 0 0 1-.5.5z"/>
    <path fill="none" d="M0 0h20v20H0z"/>
</svg>