<svg data-name="Capa 1" xmlns="http://www.w3.org/2000/svg" viewBox="0 0 20 20">
    <path fill="#ffffff" d="M16.7 7.3a1.22 1.22 0 0 0 .3-.9V2.6A1.6 1.6 0 0 0 15.4 1H4.5A1.56 1.56 0 0 0 3 2.6v3.9a1.6 1.6 0 0 0 .3.8c-.4.3-2.3 6.9-2.3 7.2v3A1.5 1.5 0 0 0 2.5 19h2A1.45 1.45 0 0 0 6 17.6c0-.4.2-.6.5-.6h6.9c.3 0 .5.2.5.6 0 1.1.6 1.4 1.4 1.4h2.2a1.51 1.51 0 0 0 1.5-1.5v-3a62.54 62.54 0 0 0-2.3-7.2zM4 2.6a.65.65 0 0 1 .6-.6h10.9a.65.65 0 0 1 .5.6v3.9a.54.54 0 0 1-.5.5h-.6a1.12 1.12 0 0 0 .1-.6V5a1 1 0 0 0-1-1H6a1 1 0 0 0-1 1v1.4a1 1 0 0 0 .1.6h-.6a.56.56 0 0 1-.5-.6zM6.5 7a.5.5 0 0 1-.5-.5v-1a.47.47 0 0 1 .5-.5h7a.54.54 0 0 1 .5.5v1a.5.5 0 0 1-.5.5zM4 8.3a.62.62 0 0 1 .5-.3h11a.55.55 0 0 1 .5.3c0 .1 1.5 4.7 1.5 4.7h-15zm14 9.1a.65.65 0 0 1-.6.6h-2.06a.47.47 0 0 1-.5-.49A1.54 1.54 0 0 0 13.36 16H6.54a1.53 1.53 0 0 0-1.48 1.47.51.51 0 0 1-.5.53h-2a.6.6 0 0 1-.6-.6v-2.9a.65.65 0 0 1 .6-.5H17.4a.6.6 0 0 1 .6.6v2.8z"/>
    <path fill="none" d="M0 0h20v20H0z"/>
</svg>