<svg data-name="Capa 1" xmlns="http://www.w3.org/2000/svg" viewBox="0 0 20 20">
    <path fill="#ffffff" d="M17.5 2H16v-.5a.5.5 0 0 0-1 0V2H5v-.5a.5.5 0 0 0-1 0V2H2.5A1.5 1.5 0 0 0 1 3.5v14A1.5 1.5 0 0 0 2.5 19h15a1.5 1.5 0 0 0 1.5-1.5v-14A1.5 1.5 0 0 0 17.5 2zm-15 1H4v1.5a.5.5 0 0 0 1 0V3h10v1.5a.5.5 0 0 0 1 0V3h1.5a.5.5 0 0 1 .5.5V6H2V3.5a.5.5 0 0 1 .5-.5zm15 15h-15a.5.5 0 0 1-.5-.5V7h16v10.5a.5.5 0 0 1-.5.5z"/>
    <path fill="#ffffff" d="M7.5 10h-1a.5.5 0 0 1 0-1h1a.5.5 0 0 1 0 1zM10.5 10h-1a.5.5 0 0 1 0-1h1a.5.5 0 0 1 0 1zM13.5 10h-1a.5.5 0 0 1 0-1h1a.5.5 0 0 1 0 1zM16.5 10h-1a.5.5 0 0 1 0-1h1a.5.5 0 0 1 0 1zM4.5 12h-1a.5.5 0 0 1 0-1h1a.5.5 0 0 1 0 1zM7.5 12h-1a.5.5 0 0 1 0-1h1a.5.5 0 0 1 0 1zM10.5 12h-1a.5.5 0 0 1 0-1h1a.5.5 0 0 1 0 1zM13.5 12h-1a.5.5 0 0 1 0-1h1a.5.5 0 0 1 0 1zM16.5 12h-1a.5.5 0 0 1 0-1h1a.5.5 0 0 1 0 1zM4.5 14h-1a.5.5 0 0 1 0-1h1a.5.5 0 0 1 0 1zM7.5 14h-1a.5.5 0 0 1 0-1h1a.5.5 0 0 1 0 1zM10.5 14h-1a.5.5 0 0 1 0-1h1a.5.5 0 0 1 0 1zM13.5 14h-1a.5.5 0 0 1 0-1h1a.5.5 0 0 1 0 1zM16.5 14h-1a.5.5 0 0 1 0-1h1a.5.5 0 0 1 0 1zM4.5 16h-1a.5.5 0 0 1 0-1h1a.5.5 0 0 1 0 1zM7.5 16h-1a.5.5 0 0 1 0-1h1a.5.5 0 0 1 0 1zM10.5 16h-1a.5.5 0 0 1 0-1h1a.5.5 0 0 1 0 1zM13.5 16h-1a.5.5 0 0 1 0-1h1a.5.5 0 0 1 0 1zM16.5 16h-1a.5.5 0 0 1 0-1h1a.5.5 0 0 1 0 1z"/>
    <path fill="none" d="M0 0h20v20H0z"/>
</svg>