<svg xmlns="http://www.w3.org/2000/svg" xmlns:xlink="http://www.w3.org/1999/xlink" width="44.238" height="50" viewBox="0 0 44.238 50">
  <defs>
    <linearGradient id="linear-gradient" x1="0.5" x2="0.5" y2="1" gradientUnits="objectBoundingBox">
      <stop offset="0" stop-color="#77e182"/>
      <stop offset="1" stop-color="#399c33"/>
    </linearGradient>
  </defs>
  <g id="smartphone_1_" data-name="smartphone (1)" transform="translate(-29.501)">
    <path id="Trazado_35860" data-name="Trazado 35860" d="M209.5,39.63V54.14c0,2.157,1.171,3.906,2.617,3.906h15.177c1.445,0,2.617-1.749,2.617-3.906V13.906c0-2.157-1.171-3.906-2.617-3.906H212.118c-1.445,0-2.617,1.749-2.617,3.906V39.63Z" transform="translate(-162.422 -9.023)" fill="#267e3d"/>
    <rect id="Rectángulo_7543" data-name="Rectángulo 7543" width="20.516" height="37.5" transform="translate(46.972 6.25)" fill="#fff"/>
    <path id="Trazado_35861" data-name="Trazado 35861" d="M176.116,172.984a8.988,8.988,0,0,1,6.177-8.536,8.984,8.984,0,1,0,0,17.072A8.988,8.988,0,0,1,176.116,172.984Z" transform="translate(-127.231 -147.984)" fill="#fff"/>
    <path id="Trazado_35862" data-name="Trazado 35862" d="M240.353,177.124a8.988,8.988,0,0,0-6.177-8.536,8.987,8.987,0,0,0,0,17.072A8.988,8.988,0,0,0,240.353,177.124Z" transform="translate(-179.114 -152.124)" fill="url(#linear-gradient)"/>
    <path id="Trazado_35863" data-name="Trazado 35863" d="M349.141,204.8l.892-.617V195.5a3.028,3.028,0,0,1,2.259-2.929,3.028,3.028,0,0,0-2.845-1.989h0a3.027,3.027,0,0,0-3.027,3.027v8.682l-.892.617a14.03,14.03,0,0,0-6.043,11.535V221H343.1v-4.659A14.03,14.03,0,0,1,349.141,204.8Z" transform="translate(-279.711 -171.972)" fill="#fff"/>
    <g id="Grupo_12465" data-name="Grupo 12465" transform="translate(34.416 20.06)">
      <path id="Trazado_35864" data-name="Trazado 35864" d="M385.211,230.921a7.943,7.943,0,0,0,.65-3.146V211.993a2.09,2.09,0,1,0-2.441,1.891v8.682l-.892.617a14.03,14.03,0,0,0-6.043,11.535v4.659h5.08Z" transform="translate(-347.514 -210.414)" fill="#e3e3e3"/>
      <path id="Trazado_35865" data-name="Trazado 35865" d="M79.835,368.146h0a2.492,2.492,0,0,0,1.28,2.176l1.073.33a2.493,2.493,0,0,0,3.225-2.383h0a2.492,2.492,0,0,0-1.28-2.176l-1.073-.33A2.493,2.493,0,0,0,79.835,368.146Z" transform="translate(-79.835 -350.003)" fill="#e3e3e3"/>
      <path id="Trazado_35866" data-name="Trazado 35866" d="M79.835,314.734h0a2.492,2.492,0,0,0,1.28,2.176l1.073.33a2.493,2.493,0,0,0,3.225-2.383h0a2.492,2.492,0,0,0-1.28-2.176l-1.073-.33A2.493,2.493,0,0,0,79.835,314.734Z" transform="translate(-79.835 -301.808)" fill="#e3e3e3"/>
      <path id="Trazado_35867" data-name="Trazado 35867" d="M79.835,261.324h0a2.492,2.492,0,0,0,1.28,2.176l1.073.33a2.493,2.493,0,0,0,3.225-2.383h0a2.492,2.492,0,0,0-1.28-2.176l-1.073-.33A2.493,2.493,0,0,0,79.835,261.324Z" transform="translate(-79.835 -253.613)" fill="#e3e3e3"/>
      <path id="Trazado_35868" data-name="Trazado 35868" d="M79.835,207.913h0a2.492,2.492,0,0,0,1.28,2.176l1.073.33a2.493,2.493,0,0,0,3.225-2.383h0a2.492,2.492,0,0,0-1.28-2.176l-1.073-.33A2.493,2.493,0,0,0,79.835,207.913Z" transform="translate(-79.835 -205.419)" fill="#e3e3e3"/>
    </g>
    <path id="Trazado_35869" data-name="Trazado 35869" d="M134.468,54a.977.977,0,1,0,.69.286A.982.982,0,0,0,134.468,54Z" transform="translate(-93.835 -48.727)" fill="#2e3641"/>
    <path id="Trazado_35870" data-name="Trazado 35870" d="M69.735,17.635a3.985,3.985,0,0,0-1.27.208V4.883A4.888,4.888,0,0,0,63.583,0H40.927a4.888,4.888,0,0,0-4.883,4.883V18.6l-2.054-.631A3.472,3.472,0,0,0,30.681,23.9a3.472,3.472,0,0,0,0,5.216,3.472,3.472,0,0,0,0,5.216,3.468,3.468,0,0,0,1.271,5.922l4.092,1.257v3.61A4.888,4.888,0,0,0,40.927,50H59.773a.977.977,0,0,0,.977-.977V42.474a13.055,13.055,0,0,1,5.623-10.732l.892-.617a.976.976,0,0,0,.421-.8V21.639a2.051,2.051,0,1,1,4.1,0V37.421a6.929,6.929,0,0,1-.57,2.759l-3.647,8.456a.977.977,0,1,0,1.793.773l3.647-8.456a8.868,8.868,0,0,0,.729-3.533V21.639A4.009,4.009,0,0,0,69.735,17.635ZM32.069,20.066a1.5,1.5,0,0,1,.9-.3,1.529,1.529,0,0,1,.45.068l4.53,1.392a1.516,1.516,0,1,1-.891,2.9l-4.53-1.392a1.516,1.516,0,0,1-.456-2.669Zm.456,13.1a1.517,1.517,0,0,1,.441-2.967,1.533,1.533,0,0,1,.45.068l3.067.942h0l1.464.45a1.516,1.516,0,0,1-.89,2.9l-.923-.283Zm.441-8.183a1.529,1.529,0,0,1,.45.068l4.53,1.392a1.516,1.516,0,0,1-.89,2.9l-.923-.283-3.608-1.109a1.517,1.517,0,0,1,.441-2.967ZM31.454,36.933a1.519,1.519,0,0,1,1.512-1.518,1.533,1.533,0,0,1,.45.068l3.067.942h0l1.464.45a1.516,1.516,0,1,1-.891,2.9l-4.531-1.392A1.508,1.508,0,0,1,31.454,36.933ZM38,45.117v-.391H58.8v3.32H40.927A2.933,2.933,0,0,1,38,45.117ZM65.731,21.639V29.81l-.471.326A15.009,15.009,0,0,0,58.8,42.474v.3H38V41.761a3.474,3.474,0,0,0,1.794-6.046,3.472,3.472,0,0,0,0-5.216,3.472,3.472,0,0,0,0-5.216,3.468,3.468,0,0,0-1.271-5.922L38,19.2V4.883a2.933,2.933,0,0,1,2.93-2.93H63.583a2.933,2.933,0,0,1,2.93,2.93v.391H44.1a.977.977,0,0,0,0,1.953H66.512v12.04A3.982,3.982,0,0,0,65.731,21.639Z" transform="translate(0)" fill="#2e3641"/>
    <path id="Trazado_35871" data-name="Trazado 35871" d="M171.447,173.907a9.964,9.964,0,0,1-9.1-14.01.977.977,0,0,1,1.785.793,8.058,8.058,0,0,0,1.656,8.918,8.008,8.008,0,1,0,2.443-13,.977.977,0,1,1-.784-1.789,9.962,9.962,0,1,1,4,19.084Z" transform="translate(-119.095 -138.946)" fill="#2e3641"/>
    <path id="Trazado_35872" data-name="Trazado 35872" d="M189.373,182.847a.967.967,0,0,1-.686-.285l-.006-.006a.973.973,0,1,1,.692.29Z" transform="translate(-143.377 -163.224)" fill="#2e3641"/>
    <path id="Trazado_35873" data-name="Trazado 35873" d="M223.354,222.684a.973.973,0,0,1-.691-.286l-3.057-3.057a.977.977,0,1,1,1.381-1.381l2.367,2.367,4.355-4.355a.977.977,0,0,1,1.381,1.381l-5.046,5.046A.974.974,0,0,1,223.354,222.684Z" transform="translate(-171.282 -194.623)" fill="#2e3641"/>
  </g>
</svg>
