<svg id="money_3_" data-name="money (3)" xmlns="http://www.w3.org/2000/svg" xmlns:xlink="http://www.w3.org/1999/xlink" width="50" height="50" viewBox="0 0 50 50">
  <defs>
    <linearGradient id="linear-gradient" x1="0.5" x2="0.5" y2="1" gradientUnits="objectBoundingBox">
      <stop offset="0" stop-color="#77e182"/>
      <stop offset="1" stop-color="#399c33"/>
    </linearGradient>
  </defs>
  <path id="Trazado_35718" data-name="Trazado 35718" d="M365.724,186.585l6.1-6.1a3.906,3.906,0,0,0,1.144-2.763V164.7a1.426,1.426,0,1,0-2.246,0v8.559h0a2.926,2.926,0,0,0-3.612-.23v.23h0c-.047-.042-.1-.083-.146-.122a3.032,3.032,0,0,0-.264.233l-6.55,6.55A3.9,3.9,0,0,0,359,182.679V189.4h6.152v-1.437a1.954,1.954,0,0,1,.572-1.381Zm0,0" transform="translate(-323.941 -146.532)" fill="#fff"/>
  <path id="Trazado_35719" data-name="Trazado 35719" d="M361.691,439v6.152H353V439Zm0,0" transform="translate(-318.527 -396.129)" fill="#267e3d"/>
  <path id="Trazado_35720" data-name="Trazado 35720" d="M188.645,13.465a13.673,13.673,0,0,0,0,26.667,13.673,13.673,0,0,0,0-26.667Zm0,0" transform="translate(-160.617 -12.15)" fill="url(#linear-gradient)"/>
  <path id="Trazado_35721" data-name="Trazado 35721" d="M124.277,439v6.152H115V439Zm0,0" transform="translate(-103.77 -396.129)" fill="#267e3d"/>
  <path id="Trazado_35722" data-name="Trazado 35722" d="M56.211,178.616l-6.55-6.55a2.953,2.953,0,0,0-.46-.375,2.94,2.94,0,0,0-.341.264h0V171.5a2.928,2.928,0,0,0-3.222.458h0V163.4a2.926,2.926,0,0,0-1.318-2.446A2.925,2.925,0,0,0,43,163.4v13.03a3.906,3.906,0,0,0,1.144,2.763l6.1,6.1a1.954,1.954,0,0,1,.572,1.381V188.1h6.543v-6.724a3.9,3.9,0,0,0-1.144-2.763Zm0,0" transform="translate(-38.801 -145.231)" fill="#fff"/>
  <path id="Trazado_35723" data-name="Trazado 35723" d="M186.977,61.953a.977.977,0,1,0-.977-.977A.977.977,0,0,0,186.977,61.953Zm0,0" transform="translate(-167.836 -54.141)" fill="#2e3641"/>
  <path id="Trazado_35724" data-name="Trazado 35724" d="M228.353,89.766a1.767,1.767,0,0,1-1.268-.739.977.977,0,1,0-1.495,1.257,4.048,4.048,0,0,0,1.786,1.272V92.7a.977.977,0,0,0,1.953,0V91.551a2.93,2.93,0,0,0-.977-5.692.977.977,0,0,1,0-1.953,1.569,1.569,0,0,1,1.056.51.976.976,0,1,0,1.358-1.4,3.769,3.769,0,0,0-1.438-.9V80.976a.977.977,0,0,0-1.953,0v1.144a2.93,2.93,0,0,0,.977,5.692.977.977,0,1,1,0,1.953Zm0,0" transform="translate(-203.353 -72.187)" fill="#2e3641"/>
  <path id="Trazado_35725" data-name="Trazado 35725" d="M309.578,146a3.911,3.911,0,0,0-3.906,3.906v6.96a3.905,3.905,0,0,0-3.738,1.02l-6.549,6.549a4.848,4.848,0,0,0-1.431,3.453v5.747h-.977a.976.976,0,0,0-.977.977v6.152a.976.976,0,0,0,.977.977h13.672a.976.976,0,0,0,.977-.977v-6.152a.976.976,0,0,0-.977-.977h-.977v-.461a.982.982,0,0,1,.286-.69l6.1-6.1a4.852,4.852,0,0,0,1.431-3.453v-13.03A3.911,3.911,0,0,0,309.578,146Zm-3.906,33.789H293.953v-4.2h11.719Zm5.859-16.853a2.911,2.911,0,0,1-.858,2.072l-6.1,6.1a2.95,2.95,0,0,0-.858,2.071v.461h-7.813v-5.747a2.91,2.91,0,0,1,.858-2.072l6.55-6.55a1.95,1.95,0,0,1,2.681-.075l.017.014c.022.019.043.04.064.061a1.952,1.952,0,0,1,0,2.761l-4.853,4.852a.977.977,0,1,0,1.381,1.381l4.852-4.852a3.9,3.9,0,0,0,.168-5.344v-8.16a1.953,1.953,0,1,1,3.906,0Zm0,0" transform="translate(-263.484 -131.742)" fill="#2e3641"/>
  <path id="Trazado_35726" data-name="Trazado 35726" d="M20.508,173.637h-.977v-5.747a4.848,4.848,0,0,0-1.431-3.453l-6.55-6.55a3.9,3.9,0,0,0-3.738-1.02v-6.96a3.906,3.906,0,1,0-7.812,0v13.03a4.852,4.852,0,0,0,1.431,3.453l6.1,6.1a.981.981,0,0,1,.286.69v.461H6.836a.976.976,0,0,0-.977.977v6.152a.976.976,0,0,0,.977.977H20.508a.976.976,0,0,0,.977-.977v-6.152a.976.976,0,0,0-.977-.977ZM8.907,171.1l-6.1-6.1a2.911,2.911,0,0,1-.858-2.072v-13.03a1.953,1.953,0,0,1,3.906,0v8.16a3.9,3.9,0,0,0,.168,5.344l4.883,4.883a.977.977,0,1,0,1.381-1.381l-4.883-4.883a1.952,1.952,0,0,1,0-2.761c.021-.021.042-.042.064-.061l.017-.015a1.95,1.95,0,0,1,2.681.075l6.551,6.55a2.91,2.91,0,0,1,.858,2.072v5.747H9.766v-.461a2.95,2.95,0,0,0-.858-2.071Zm10.624,8.685H7.812v-4.2H19.531Zm0,0" transform="translate(0 -131.742)" fill="#2e3641"/>
  <path id="Trazado_35727" data-name="Trazado 35727" d="M135.3,14.648A14.648,14.648,0,1,0,120.648,29.3,14.665,14.665,0,0,0,135.3,14.648Zm-14.648,12.7a12.7,12.7,0,1,1,12.7-12.7A12.71,12.71,0,0,1,120.648,27.344Zm0,0" transform="translate(-95.648 0)" fill="#2e3641"/>
  <path id="Trazado_35728" data-name="Trazado 35728" d="M163.486,42.408a10.816,10.816,0,0,0-9.123-2.123.977.977,0,1,0,.412,1.909,8.872,8.872,0,0,1,7.485,1.734,8.787,8.787,0,1,1-13.267,2.693.976.976,0,0,0-1.721-.924,10.743,10.743,0,1,0,16.214-3.289Zm0,0" transform="translate(-131.742 -36.122)" fill="#2e3641"/>
</svg>
