<svg xmlns="http://www.w3.org/2000/svg" viewBox="0 0 317 117"><defs><style>.cls-3,.cls-4{fill:#fff}.cls-4{stroke:#f3f3f3}.cls-5{fill:#8b8b8b}.cls-6{fill:#c7c7c7}.cls-7{fill:#d5d5d5}.cls-8{fill:#282827}.cls-9{stroke:none}.cls-10{fill:none}</style><clipPath id="clip-imagen_inmobiliarias"><path d="M0 0h317v117H0z"/></clipPath></defs><g id="imagen_inmobiliarias" clip-path="url(#clip-imagen_inmobiliarias)"><path class="cls-3" d="M0 0h317v117H0z"/><g id="imagen_inmobiliarias-2" data-name="imagen_inmobiliarias" transform="translate(-769.839 -182)"><circle id="Ellipse_1" data-name="Ellipse 1" cx="58.5" cy="58.5" r="58.5" transform="translate(878 182)" fill="#f3f3f3"/><path id="Path_1" data-name="Path 1" class="cls-3" d="M0 0l-6.9-.5 2.4-5h44.1v-33l-1.8-.7v-2h11.6v2l-1.4.7.822 33H62.8l1.7 4.4L58 0v44H0z" transform="translate(907 238)"/><path id="Path_2" data-name="Path 2" class="cls-3" d="M0 0l-6.9-.5 2.4-5h53.322l.578 1.9-2.9 3.1 10.4 8.4L58 44H0z" transform="translate(826 238)"/><g id="Rectangle_1" data-name="Rectangle 1" class="cls-4" transform="translate(851 205)"><rect class="cls-9" width="55" height="16" rx="8"/><rect class="cls-10" x=".5" y=".5" width="54" height="15" rx="7.5"/></g><g id="Rectangle_2" data-name="Rectangle 2" class="cls-4" transform="translate(974 216)"><rect class="cls-9" width="55" height="16" rx="8"/><rect class="cls-10" x=".5" y=".5" width="54" height="15" rx="7.5"/></g><g id="Rectangle_3" data-name="Rectangle 3" class="cls-4" transform="translate(962 198)"><rect class="cls-9" width="33" height="10" rx="5"/><rect class="cls-10" x=".5" y=".5" width="32" height="9" rx="4.5"/></g><path id="Path_3" data-name="Path 3" class="cls-5" d="M.4-.2h49.9l8.2 21.7H-8z" transform="translate(911 210)"/><path id="Path_4" data-name="Path 4" class="cls-5" d="M25.9-10.5L47.2 8.9l4.1-2.6 17.6 16H-10z" transform="translate(1003 221)"/><path id="Path_5" data-name="Path 5" class="cls-5" d="M.627-.2L51.1.8l9.2 20.3h-104L-38.3 8H-3z" transform="translate(825 224.7)"/><path id="Rectangle_4" data-name="Rectangle 4" class="cls-6" transform="translate(908 274)" d="M0 0h57v9H0z"/><path id="Rectangle_5" data-name="Rectangle 5" class="cls-6" transform="translate(998 273)" d="M0 0h71v9H0z"/><path id="Rectangle_6" data-name="Rectangle 6" class="cls-6" transform="translate(843 260)" d="M0 0h13v22H0z"/><path id="Path_6" data-name="Path 6" class="cls-7" d="M18.5-.2h17.8v28.1H18.5z" transform="translate(909 254)"/><path id="Path_7" data-name="Path 7" class="cls-7" d="M18.5-.2h14.8v23.5H18.5z" transform="translate(1026 258.6)"/><path id="Path_8" data-name="Path 8" class="cls-7" d="M18.5-.2h24.3V25H18.5z" transform="translate(770 256.9)"/><g id="Group_1" data-name="Group 1" transform="translate(888 196)"><path id="Path_9" data-name="Path 9" class="cls-8" d="M65.83 143.06h-1.338v-11.226a.728.728 0 0 0-.734-.734h-9.11a.728.728 0 0 0-.734.734v11.226h-1.08a.734.734 0 1 0 0 1.468h13a.734.734 0 1 0 0-1.468zm-10.492 0v-4.534h3.2v4.534zm0-10.492h3.2v4.532h-3.157v-4.534zm4.62 0h3.152v4.532h-3.152zm0 5.958h3.152v4.534h-3.152z" transform="translate(-29.605 -74.495)"/><path id="Path_10" data-name="Path 10" class="cls-8" d="M152.135 143.06v-11.226a.728.728 0 0 0-.734-.734h-9.154a.728.728 0 0 0-.734.734v11.226h-1.079a.734.734 0 0 0 0 1.468h12.953a.734.734 0 1 0 0-1.468zm-9.154 0v-4.534h3.152v4.534zm7.729-10.492v4.532h-3.11v-4.534zm-4.577 0v4.532h-3.152v-4.534h3.152zm1.425 5.958h3.152v4.534h-3.152z" transform="translate(-79.381 -74.495)"/><path id="Path_11" data-name="Path 11" class="cls-8" d="M66.53 104.2h-13a.728.728 0 0 0-.734.734v4.275a.728.728 0 0 0 .734.734h13a.728.728 0 0 0 .734-.734v-4.275a.728.728 0 0 0-.734-.734zm-12.306 1.425h5.138v2.85h-5.137zm11.615 2.85h-5.051v-2.85h5.052z" transform="translate(-30.002 -59.209)"/><path id="Path_12" data-name="Path 12" class="cls-8" d="M96.334 109.9h13.04a.674.674 0 0 0 .691-.648v-4.318a.728.728 0 0 0-.734-.734h-13a.728.728 0 0 0-.734.734v4.275a.785.785 0 0 0 .737.691zm12.306-1.425h-5.052v-2.85h5.012v2.85zm-11.572-2.85h5.138v2.85h-5.138z" transform="translate(-54.323 -59.209)"/><path id="Path_13" data-name="Path 13" class="cls-8" d="M139.234 109.843h13a.728.728 0 0 0 .734-.734v-4.275a.728.728 0 0 0-.734-.734h-13a.728.728 0 0 0-.734.734v4.275a.789.789 0 0 0 .734.734zm12.306-1.425h-5.009v-2.85h5.009zm-11.572-2.85h5.138v2.85h-5.138z" transform="translate(-78.699 -59.152)"/><path id="Path_14" data-name="Path 14" class="cls-8" d="M.734 86.7h95.12a.734.734 0 0 0 0-1.468H77.5v-18.48a9.339 9.339 0 0 1 5.7 4.663.726.726 0 0 0 .734.389 12.388 12.388 0 0 1 7.988 1.382.7.7 0 0 0 .648-1.252 13.875 13.875 0 0 0-6.692-1.684c-.561 0-1.123.043-1.727.086a10.945 10.945 0 0 0-6.736-5.052V41.968h6.52a.825.825 0 0 0 .6-.3.689.689 0 0 0 .086-.648L74.135 13.342a.749.749 0 0 0-.648-.475h-5.915V3.886h.777a.728.728 0 0 0 .734-.734V.734A.728.728 0 0 0 68.35 0H56.433a.728.728 0 0 0-.733.734V3.2a.728.728 0 0 0 .734.734h.777v9.024h-34.2a.649.649 0 0 0-.648.475L11.874 41.018a.689.689 0 0 0 .086.648.755.755 0 0 0 .6.3h6.52V64.9a12.3 12.3 0 0 0-1.123.993A10.885 10.885 0 0 0 9.8 71.2a14.121 14.121 0 0 0-9.152 2.029.706.706 0 0 0-.216.993.689.689 0 0 0 .6.345.7.7 0 0 0 .389-.13 12.535 12.535 0 0 1 8.635-1.77.668.668 0 0 0 .734-.389 9.491 9.491 0 0 1 7.556-5.052.531.531 0 0 0 .432-.216 1.994 1.994 0 0 1 .3-.3v10.923c0 .043-.043.13-.043.173a.26.26 0 0 0 .043.173v7.167H.734a.778.778 0 0 0 0 1.554zm19.775-21.027V42.011h55.613v35.233H58.03V57.469a.728.728 0 0 0-.734-.734h-18a.728.728 0 0 0-.734.734v19.775H20.509zM15.026 36.7h66.536l1.468 3.886H13.558zM57.21 1.425H67.7v1.036H57.21zm1.511 2.461h7.513v8.981h-7.513zm14.335 10.449L81 35.276H15.587l7.945-20.941h49.524zm-16.494 70.94H40.025V58.16h16.537zm19.516 0H57.987v-6.606h18.091zm-55.569-6.606H38.6v6.606H20.509z"/><circle id="Ellipse_2" data-name="Ellipse 2" class="cls-8" cx="1.382" cy="1.382" r="1.382" transform="translate(41.537 70.724)"/><path id="Path_15" data-name="Path 15" class="cls-8" d="M101.215 137.2h-5.181a.728.728 0 0 0-.734.734v8.333a.728.728 0 0 0 .734.734h5.181a.728.728 0 0 0 .734-.734v-8.333a.789.789 0 0 0-.734-.734zm-.734 8.376h-3.713v-6.908h3.713z" transform="translate(-54.152 -77.961)"/><path id="Path_16" data-name="Path 16" class="cls-8" d="M118.672 137.2h-5.138a.728.728 0 0 0-.734.734v8.333a.728.728 0 0 0 .734.734h5.138a.728.728 0 0 0 .734-.734v-8.333a.757.757 0 0 0-.734-.734zm-.691 8.376h-3.713v-6.908h3.713z" transform="translate(-64.096 -77.961)"/><path id="Path_17" data-name="Path 17" class="cls-8" d="M101.215 173h-5.181a.728.728 0 0 0-.734.734v8.333a.728.728 0 0 0 .734.734h5.181a.728.728 0 0 0 .734-.734v-8.376a.749.749 0 0 0-.734-.691zm-.734 3.972v4.361h-3.713v-6.908h3.713z" transform="translate(-54.152 -98.303)"/><path id="Path_18" data-name="Path 18" class="cls-8" d="M118.672 173h-5.138a.728.728 0 0 0-.734.734v8.333a.728.728 0 0 0 .734.734h5.138a.728.728 0 0 0 .734-.734v-8.376a.719.719 0 0 0-.734-.691zm-.691 3.972v4.361h-3.713v-6.908h3.713z" transform="translate(-64.096 -98.303)"/></g><g id="Group_2" data-name="Group 2" transform="translate(769.934 213.7)"><path id="Path_19" data-name="Path 19" class="cls-8" d="M120.035 71.5h-14.61a.818.818 0 0 0-.825.825v3.64a.818.818 0 0 0 .825.825h14.61a.818.818 0 0 0 .825-.825v-3.64a.79.79 0 0 0-.825-.825zm-13.785 1.6h5.776v2.04h-5.776zm13.008 2.039h-5.63V73.1h5.63z" transform="translate(-53.878 -36.796)"/><path id="Path_20" data-name="Path 20" class="cls-8" d="M147.5 72.225v3.64a.818.818 0 0 0 .825.825h14.61a.818.818 0 0 0 .825-.825v-3.64a.818.818 0 0 0-.825-.825h-14.61a.887.887 0 0 0-.825.825zm14.658 2.864h-5.63V73.05h5.63zM149.1 73.05h5.776v2.039H149.1z" transform="translate(-75.955 -36.744)"/><path id="Path_21" data-name="Path 21" class="cls-8" d="M191.225 76.691h14.61a.818.818 0 0 0 .825-.825v-3.64a.818.818 0 0 0-.825-.825h-14.61a.818.818 0 0 0-.825.825v3.64a.851.851 0 0 0 .825.825zm13.833-1.6h-5.63V73.05h5.63zM192 73.05h5.776v2.039H192z" transform="translate(-98.033 -36.744)"/><path id="Path_22" data-name="Path 22" class="cls-8" d="M120.13 101.3h-.971V88.925a.818.818 0 0 0-.825-.825h-9.513a.818.818 0 0 0-.825.825V101.3h-.971a.825.825 0 1 0 0 1.65h13.008a.818.818 0 0 0 .825-.825.717.717 0 0 0-.728-.825zM109.6 89.75h7.912v5.873H109.6zm0 11.552v-4.077h7.912v4.075z" transform="translate(-54.701 -45.338)"/><path id="Path_23" data-name="Path 23" class="cls-8" d="M204.53 101.3h-.971V88.925a.818.818 0 0 0-.825-.825h-9.513a.818.818 0 0 0-.825.825V101.3h-.971a.825.825 0 0 0 0 1.65h13.008a.818.818 0 0 0 .825-.825.717.717 0 0 0-.728-.825zM194 89.75h7.96v5.873h-7.912V89.75zm0 11.552v-4.077h7.96v4.075z" transform="translate(-98.135 -45.338)"/><path id="Path_24" data-name="Path 24" class="cls-8" d="M18.056 69.021h106.977a.825.825 0 1 0 0-1.65h-11.357V51.207a3.092 3.092 0 0 0 .34.1.726.726 0 0 0 .631-.049.752.752 0 0 0 .388-.534c.437-1.747 1.359-2.524 3.009-2.524a3.5 3.5 0 0 1 3.689 2.427.787.787 0 0 0 .777.582 4.947 4.947 0 0 1 3.349 1.311.73.73 0 0 0 .534.194.692.692 0 0 0 .582-.291.78.78 0 0 0-.1-1.116 6.5 6.5 0 0 0-3.786-1.65 5.178 5.178 0 0 0-5.048-3.058H118a4.263 4.263 0 0 0-4.32 2.961h-.049V32.569h1.8a.775.775 0 0 0 .68-.388.878.878 0 0 0 .049-.777l-9.222-20.337a.85.85 0 0 0-.728-.485H95.183V9.271h2.475a.825.825 0 1 0 0-1.65h-2.475V3.834h3.3l-.194 1.019a.754.754 0 0 0 .631.922h.146a.785.785 0 0 0 .777-.68l.728-3.98a.754.754 0 0 0-.631-.922.754.754 0 0 0-.922.631l-.243 1.359h-3.592V.825a.825.825 0 0 0-1.65 0v1.408h-3.35l.194-1.116a.754.754 0 0 0-.631-.922.754.754 0 0 0-.922.631L88.1 4.8a.754.754 0 0 0 .631.922h.146a.785.785 0 0 0 .777-.68l.246-1.306h3.64v2.428h-2.192a.825.825 0 0 0 0 1.65h2.184v2.912H55.77a.85.85 0 0 0-.728.485l-3.155 7.039H16.843a.85.85 0 0 0-.728.485L10.29 31.55a.878.878 0 0 0 .049.777.775.775 0 0 0 .68.388H13.2v16.551a4.245 4.245 0 0 0-4.126-2.524h-.046A5.11 5.11 0 0 0 3.98 49.8a7.179 7.179 0 0 0-3.786 1.65.78.78 0 0 0-.1 1.116.759.759 0 0 0 .582.291.73.73 0 0 0 .534-.194 5.191 5.191 0 0 1 3.349-1.311.831.831 0 0 0 .777-.582 3.633 3.633 0 0 1 3.689-2.427c1.65 0 2.572.777 3.009 2.524a.864.864 0 0 0 .388.534.726.726 0 0 0 .631.049h.047v16.066H1.456a.825.825 0 1 0 0 1.65h16.6zm.825-9.708h23.153v1.6H18.881zm0-3.2h23.153v1.6H18.881zm0-3.2h23.153v1.6H18.881zm23.152-1.6H18.881V49.46h23.153zm-23.152 11.2h23.153v1.6H18.881zm23.153-14.655H18.881V43.83h23.153zM18.881 67.419v-1.7h23.153v1.7zm34.8-49.169l2.67-5.922h49.363l8.543 18.736h-66.4l5.1-11.212zm19.708 48.878V47.373h12.377v19.755zm38.733.291H87.368V46.6a.818.818 0 0 0-.825-.825H72.564a.818.818 0 0 0-.825.825v20.819H47.373V32.666h64.7v34.753zM12.28 31.064l5.1-11.212h33.827l-5.145 11.212zm2.573 1.6H45.82v34.755h-2.184V43.053a.818.818 0 0 0-.825-.825H18.056a.818.818 0 0 0-.825.825v24.366H14.8V32.666z"/></g><g id="Group_3" data-name="Group 3" transform="translate(981.057 209.85)"><path id="Path_25" data-name="Path 25" class="cls-8" d="M104.881 55.8a4.035 4.035 0 0 0-2.98-.219 5.723 5.723 0 0 0-6.924-3.024 6.208 6.208 0 0 0-.789.351 5.412 5.412 0 0 0-5.522-1.49V36.7h5.872c.044 0 .044 0 .088-.044h.044c.044-.044.088-.044.131-.088l.088-.088a.779.779 0 0 0 .175-.438V36a.264.264 0 0 0-.044-.175c0-.044-.044-.044-.044-.088l-.131-.131-2.761-2.5-18.318-16.613a.688.688 0 0 0-.964 0l-3.331 3.024L48.217.147a.688.688 0 0 0-.964 0L11.011 32.971l-2.761 2.5a.6.6 0 0 0-.131.175c-.044.044-.044.131-.088.175v.219a.4.4 0 0 0 .044.219.854.854 0 0 0 .438.438c.088 0 .131.044.219.044h7.318v14.636a5.265 5.265 0 0 0-5 1.621 6.208 6.208 0 0 0-.789-.351 5.7 5.7 0 0 0-6.924 3.024 4.035 4.035 0 0 0-2.98.219.737.737 0 0 0-.351.964.737.737 0 0 0 .964.346 2.768 2.768 0 0 1 2.41.044 1.031 1.031 0 0 0 .351.088.556.556 0 0 0 .269-.039.723.723 0 0 0 .438-.438 4.255 4.255 0 0 1 5.346-2.8 3.4 3.4 0 0 1 .964.526.606.606 0 0 0 .526.131.833.833 0 0 0 .482-.307 3.914 3.914 0 0 1 4.3-1.49v10.162c0 .044-.044.131-.044.175a.263.263 0 0 0 .044.175v7.933H3.036a.745.745 0 1 0 0 1.49h96.981a.745.745 0 0 0 0-1.49H88.622V52.91a.746.746 0 0 0 .307-.044 3.887 3.887 0 0 1 4.47 1.446.833.833 0 0 0 .482.307.576.576 0 0 0 .526-.131 4.123 4.123 0 0 1 .964-.526 4.291 4.291 0 0 1 5.346 2.8.724.724 0 0 0 .438.438.556.556 0 0 0 .263.044.826.826 0 0 0 .351-.088 2.915 2.915 0 0 1 2.41-.044.737.737 0 0 0 .964-.351.641.641 0 0 0-.262-.961zM87.22 62.5h-8.37V48.966a.739.739 0 0 0-.745-.745H64.257a.739.739 0 0 0-.745.745v13.542h-8.9V36.7h32.564v25.808zm-9.773 0v8.633h-12.4V49.711h12.4zm12.271-29.7H56.851l12.621-11.442 1.1-.964 2.761-2.5zM11.8 34.242h79.539l1.139 1.052H10.617zM47.735 1.681l20.641 18.713L54.659 32.8H13.378zm4.47 35.019h1.052v25.808H17.541V36.7zM17.541 63.954h35.672v7.406H17.541zm37.118 0h8.9v7.406h-8.9zm24.235 7.406v-7.406h8.37v7.406z"/><path id="Path_26" data-name="Path 26" class="cls-8" d="M46.845 91.4H58.2a.739.739 0 0 0 .745-.745v-3.51a.739.739 0 0 0-.745-.745H46.845a.739.739 0 0 0-.745.745v3.506a.767.767 0 0 0 .745.749zm10.649-1.45h-4.163v-2.06h4.163zm-9.9-2.06h4.295v2.06h-4.3z" transform="translate(-25.929 -48.565)"/><path id="Path_27" data-name="Path 27" class="cls-8" d="M160.351 86.5h-11.306a.739.739 0 0 0-.745.745v3.506a.739.739 0 0 0 .745.745H160.4a.739.739 0 0 0 .745-.745v-3.506a.776.776 0 0 0-.794-.745zm-10.6 1.446h4.295v2.06h-4.295zm9.9 2.06h-4.163v-2.06h4.163z" transform="translate(-83.342 -48.621)"/><path id="Path_28" data-name="Path 28" class="cls-8" d="M87.945 91.4H99.3a.739.739 0 0 0 .745-.745v-3.51a.739.739 0 0 0-.745-.745H87.945a.739.739 0 0 0-.745.745v3.506a.767.767 0 0 0 .745.749zm10.649-1.45h-4.163v-2.06h4.163zm-9.9-2.06h4.295v2.06h-4.3z" transform="translate(-49.018 -48.565)"/><path id="Path_29" data-name="Path 29" class="cls-8" d="M43.445 115.78h14.418a.745.745 0 0 0 0-1.49h-.789v-11.745a.739.739 0 0 0-.745-.745h-11.35a.739.739 0 0 0-.745.745v11.745h-.789a.739.739 0 0 0-.745.745.767.767 0 0 0 .745.745zm2.235-12.446h9.9v7.1h-9.9zm0 8.546h9.9v2.454h-9.9z" transform="translate(-24.019 -57.216)"/><path id="Path_30" data-name="Path 30" class="cls-8" d="M84.289 115.78h14.418a.745.745 0 1 0 0-1.49h-.789v-11.745a.739.739 0 0 0-.745-.745H85.779a.739.739 0 0 0-.745.745v11.745h-.789a.739.739 0 0 0-.745.745.776.776 0 0 0 .789.745zm2.235-12.446h9.9v7.1h-9.9zm0 8.546h9.9v2.454h-9.9z" transform="translate(-46.94 -57.216)"/></g><g id="Rectangle_7" data-name="Rectangle 7" class="cls-4" transform="translate(874 193)"><rect class="cls-9" width="33" height="10" rx="5"/><rect class="cls-10" x=".5" y=".5" width="32" height="9" rx="4.5"/></g><g id="Rectangle_8" data-name="Rectangle 8" class="cls-4" transform="translate(1036 203)"><rect class="cls-9" width="33" height="10" rx="5"/><rect class="cls-10" x=".5" y=".5" width="32" height="9" rx="4.5"/></g><g id="Rectangle_9" data-name="Rectangle 9" class="cls-4" transform="translate(805 203)"><rect class="cls-9" width="33" height="10" rx="5"/><rect class="cls-10" x=".5" y=".5" width="32" height="9" rx="4.5"/></g></g></g></svg>