<svg xmlns="http://www.w3.org/2000/svg" xmlns:xlink="http://www.w3.org/1999/xlink" width="50" height="50" viewBox="0 0 50 50">
  <defs>
    <linearGradient id="linear-gradient" x1="0.5" x2="0.5" y2="1" gradientUnits="objectBoundingBox">
      <stop offset="0" stop-color="#77e182"/>
      <stop offset="1" stop-color="#399c33"/>
    </linearGradient>
    <clipPath id="clip-confianza">
      <rect width="50" height="50"/>
    </clipPath>
  </defs>
  <g id="confianza" clip-path="url(#clip-confianza)">
    <rect width="50" height="50" fill="#fff"/>
    <g id="Grupo_12467" data-name="Grupo 12467" transform="translate(-3053 7364)">
      <g id="security" transform="translate(3059 -7364)">
        <path id="Trazado_35854" data-name="Trazado 35854" d="M113,31.347V56.983a9.764,9.764,0,0,0,4.349,8.125l8.2,5.467,8.2-5.467a9.762,9.762,0,0,0,4.348-8.125V31.347l-12.571-4.183Zm0,0" transform="translate(-101.961 -24.511)" fill="#267e3d"/>
        <path id="Trazado_35855" data-name="Trazado 35855" d="M63.671,51.09,50,56.071v22.5a5.858,5.858,0,0,0,2.609,4.875l11.062,7.375h0l11.061-7.377a5.858,5.858,0,0,0,2.608-4.875v-22.5Zm0,0" transform="translate(-45.117 -46.101)" fill="#fff"/>
        <path id="Trazado_35856" data-name="Trazado 35856" d="M121,67.742v22.5a5.859,5.859,0,0,0,2.609,4.875l7.6,5.064,7.6-5.066a5.858,5.858,0,0,0,2.608-4.875v-22.5l-10.2-3.718Zm0,0" transform="translate(-109.18 -57.772)" fill="url(#linear-gradient)"/>
        <path id="Trazado_35857" data-name="Trazado 35857" d="M40.977,167.949a.977.977,0,1,0-.977-.977A.977.977,0,0,0,40.977,167.949Zm0,0" transform="translate(-36.094 -149.785)" fill="#2e3641"/>
        <path id="Trazado_35858" data-name="Trazado 35858" d="M36.44,5.908,18.83.05a.973.973,0,0,0-.617,0L.667,5.909A.977.977,0,0,0,0,6.835V32.471a10.718,10.718,0,0,0,4.783,8.937l12.147,8.1a2.922,2.922,0,0,0,3.25,0l12.144-8.1a10.717,10.717,0,0,0,4.783-8.937V6.835a.977.977,0,0,0-.668-.927ZM35.155,32.471a8.769,8.769,0,0,1-3.913,7.312L19.1,47.881a.975.975,0,0,1-1.084,0l-12.147-8.1a8.769,8.769,0,0,1-3.913-7.312V7.539l16.57-5.534L35.155,7.54Zm0,0" transform="translate(0 0.001)" fill="#2e3641"/>
        <path id="Trazado_35859" data-name="Trazado 35859" d="M54.813,41.007a.977.977,0,0,0-.531.039L40.641,46.035a.977.977,0,0,0-.641.917v3.283a.977.977,0,0,0,1.953,0v-2.6l11.718-4.286V59.054H41.953v-.946a.977.977,0,1,0-1.953,0V69.456a6.82,6.82,0,0,0,3.044,5.687L54.1,82.515l0,0,0,0,0,0a1.053,1.053,0,0,0,.092.053l.01.006.018.008c.023.011.045.02.068.029l.037.014.059.018.047.012.043.007a.948.948,0,0,0,.164.016c.016,0,.031,0,.047,0l.066,0,.063-.01.058-.013c.033-.008.065-.018.1-.03s.037-.013.055-.021.043-.019.064-.031l.04-.023c.017-.01.035-.018.051-.029l11.062-7.377A6.822,6.822,0,0,0,69.3,69.455v-22.5a.977.977,0,0,0-.642-.917l-13.585-4.95a.979.979,0,0,0-.256-.08ZM41.953,69.456V61.007H53.672V79.881l-9.544-6.363a4.871,4.871,0,0,1-2.174-4.063Zm23.216,4.062-9.545,6.366V61.007H67.343v8.448a4.873,4.873,0,0,1-2.174,4.062Zm2.174-14.463H55.625V43.369l11.718,4.27Zm0,0" transform="translate(-36.094 -36.984)" fill="#2e3641"/>
      </g>
    </g>
  </g>
</svg>
