<svg xmlns="http://www.w3.org/2000/svg" xmlns:xlink="http://www.w3.org/1999/xlink" width="50" height="50" viewBox="0 0 50 50">
  <defs>
    <linearGradient id="linear-gradient" x1="0.5" x2="0.5" y2="1" gradientUnits="objectBoundingBox">
      <stop offset="0" stop-color="#77e182"/>
      <stop offset="1" stop-color="#399c33"/>
    </linearGradient>
    <clipPath id="clip-edad">
      <rect width="50" height="50"/>
    </clipPath>
  </defs>
  <g id="edad" clip-path="url(#clip-edad)">
    <rect width="50" height="50" fill="#fff"/>
    <g id="Grupo_12463" data-name="Grupo 12463" transform="translate(-3322.59 7641.41)">
      <g id="user" transform="translate(3322.59 -7634.41)">
        <path id="Trazado_35766" data-name="Trazado 35766" d="M133.278,142.442h.928v-3.859h-.928A1.278,1.278,0,0,0,132,139.861v1.3A1.278,1.278,0,0,0,133.278,142.442Z" transform="translate(-122.903 -129.032)" fill="#fff"/>
        <path id="Trazado_35767" data-name="Trazado 35767" d="M348.928,138.583H348v3.859h.928a1.278,1.278,0,0,0,1.278-1.278v-1.3A1.278,1.278,0,0,0,348.928,138.583Z" transform="translate(-324.016 -129.032)" fill="#ffe6c3"/>
        <path id="Trazado_35768" data-name="Trazado 35768" d="M241.315,13.3a5.354,5.354,0,0,0-3.807,5.125v7.048a5.354,5.354,0,0,0,3.807,5.125,5.354,5.354,0,0,0,3.807-5.125V18.425A5.354,5.354,0,0,0,241.315,13.3Z" transform="translate(-221.139 -12.383)" fill="#fff"/>
        <path id="Trazado_35769" data-name="Trazado 35769" d="M236,12.525a5.355,5.355,0,0,0-4,5.179v3.456a12.341,12.341,0,0,0,7.588-3.562s.164-.151.384-.371A5.355,5.355,0,0,0,236,12.525Z" transform="translate(-216.011 -11.662)" fill="#267e3d"/>
        <path id="Trazado_35770" data-name="Trazado 35770" d="M144.407,266.141l-2.386-.522a3.334,3.334,0,0,1-2.622-3.257V261.8l-1.133,0v.567a3.334,3.334,0,0,1-2.62,3.257l-2.357.517a7.691,7.691,0,0,0-6.043,7.513v4.7h23.209v-4.695A7.691,7.691,0,0,0,144.407,266.141Z" transform="translate(-118.477 -243.752)" fill="#fff"/>
        <path id="Trazado_35771" data-name="Trazado 35771" d="M59.852,308.565a6.243,6.243,0,0,1-1.947-1.322l-.085-.029a3.325,3.325,0,0,1-1.42.7l-2.357.517A7.691,7.691,0,0,0,48,315.94v4.7h6.341v-4.7A7.691,7.691,0,0,1,59.852,308.565Z" transform="translate(-44.692 -286.041)" fill="#fff"/>
        <path id="Trazado_35772" data-name="Trazado 35772" d="M156.812,308.491c-.174-.051-.351-.1-.531-.138l-2.386-.522a3.325,3.325,0,0,1-1.427-.7l-.044.035a6.257,6.257,0,0,1-6.913,1.322A7.691,7.691,0,0,0,140,315.863v4.7h22.33v-4.695A7.69,7.69,0,0,0,156.812,308.491Z" transform="translate(-130.351 -285.965)" fill="url(#linear-gradient)"/>
        <path id="Trazado_35773" data-name="Trazado 35773" d="M421.749,346.381a.689.689,0,1,0,.985-.964l-.05-.05a.689.689,0,0,0-.977.973Z" transform="translate(-392.458 -321.376)" fill="#2e3641"/>
        <path id="Trazado_35774" data-name="Trazado 35774" d="M34.6,33.908h-1.93V29.9a8.413,8.413,0,0,0-.9-3.783.689.689,0,1,0-1.23.623,7.029,7.029,0,0,1,.753,3.16v4.005H4V29.9a7.044,7.044,0,0,1,5.5-6.839l2.357-.517a3.97,3.97,0,0,0,1.243-.506,6.956,6.956,0,0,0,9.075.012,3.969,3.969,0,0,0,1.223.492l2.386.522a7.007,7.007,0,0,1,1.69.6.689.689,0,1,0,.627-1.228,8.388,8.388,0,0,0-2.022-.723l-2.386-.522a2.661,2.661,0,0,1-2.08-2.584v-.266A6.058,6.058,0,0,0,24.588,14.1h.323a1.969,1.969,0,0,0,1.967-1.967v-1.3a1.969,1.969,0,0,0-1.967-1.967h-.238V6.042A6.049,6.049,0,0,0,18.631,0H16.655a6.049,6.049,0,0,0-6.042,6.042v2.82h-.238a1.969,1.969,0,0,0-1.967,1.967v1.3A1.969,1.969,0,0,0,10.375,14.1H10.7a6.058,6.058,0,0,0,2.94,4.224v.288A2.661,2.661,0,0,1,11.56,21.2L9.2,21.712A8.381,8.381,0,0,0,2.619,29.9v4.01H.689a.689.689,0,0,0,0,1.378H34.6a.689.689,0,1,0,0-1.378ZM24.911,10.24a.589.589,0,0,1,.589.589v1.3a.589.589,0,0,1-.589.589h-.238V10.24ZM16.655,1.378h1.976a4.671,4.671,0,0,1,4.61,3.957.688.688,0,0,0-.151.114,11.576,11.576,0,0,1-8.24,3.413H11.992V6.042A4.669,4.669,0,0,1,16.655,1.378ZM9.786,12.132v-1.3a.589.589,0,0,1,.589-.589h.238v2.481h-.238A.589.589,0,0,1,9.786,12.132Zm2.205.957V10.24H14.85a12.967,12.967,0,0,0,4.987-.992,12.958,12.958,0,0,0,3.457-2.114V13.09a4.669,4.669,0,0,1-4.664,4.663H16.655A4.669,4.669,0,0,1,11.992,13.09Zm4.664,6.042h1.976a6.028,6.028,0,0,0,1.614-.219,4.029,4.029,0,0,0,.88,2.214,5.574,5.574,0,0,1-6.986-.017,4.027,4.027,0,0,0,.867-2.206A6.031,6.031,0,0,0,16.655,19.132Z" fill="#2e3641"/>
        <path id="Trazado_35775" data-name="Trazado 35775" d="M82.3,368.038a5.575,5.575,0,0,0-2.127,4.4.689.689,0,1,0,1.378,0,4.2,4.2,0,0,1,1.6-3.314.689.689,0,1,0-.855-1.081Z" transform="translate(-74.647 -342.534)" fill="#2e3641"/>
        <path id="Trazado_35776" data-name="Trazado 35776" d="M136.312,354.194l-.032.007a.689.689,0,1,0,.3,1.346l.03-.007a.689.689,0,0,0-.3-1.346Z" transform="translate(-126.385 -329.768)" fill="#2e3641"/>
      </g>
      <g id="user-2" data-name="user" transform="translate(3343.342 -7628.372)">
        <path id="Trazado_35766-2" data-name="Trazado 35766" d="M133.059,141.782h.769v-3.2h-.769A1.059,1.059,0,0,0,132,139.642v1.081A1.059,1.059,0,0,0,133.059,141.782Z" transform="translate(-124.459 -130.666)" fill="#fff"/>
        <path id="Trazado_35767-2" data-name="Trazado 35767" d="M348.769,138.583H348v3.2h.769a1.059,1.059,0,0,0,1.059-1.059v-1.081A1.059,1.059,0,0,0,348.769,138.583Z" transform="translate(-328.12 -130.666)" fill="#ffe6c3"/>
        <path id="Trazado_35768-2" data-name="Trazado 35768" d="M240.664,13.3a4.438,4.438,0,0,0-3.156,4.248V23.39a4.438,4.438,0,0,0,3.156,4.248,4.438,4.438,0,0,0,3.156-4.248V17.548A4.438,4.438,0,0,0,240.664,13.3Z" transform="translate(-223.94 -12.54)" fill="#fff"/>
        <path id="Trazado_35769-2" data-name="Trazado 35769" d="M235.312,12.525A4.438,4.438,0,0,0,232,16.818v2.864a10.229,10.229,0,0,0,6.29-2.952s.136-.125.318-.307A4.439,4.439,0,0,0,235.312,12.525Z" transform="translate(-218.747 -11.809)" fill="#267e3d"/>
        <path id="Trazado_35770-2" data-name="Trazado 35770" d="M141.471,265.4l-1.977-.432a2.764,2.764,0,0,1-2.173-2.7v-.47l-.939,0v.47a2.764,2.764,0,0,1-2.172,2.7l-1.953.429a6.375,6.375,0,0,0-5.009,6.227v3.895h19.237v-3.891A6.375,6.375,0,0,0,141.471,265.4Z" transform="translate(-119.978 -246.84)" fill="#fff"/>
        <path id="Trazado_35771-2" data-name="Trazado 35771" d="M57.824,308.334a5.176,5.176,0,0,1-1.614-1.1l-.07-.024a2.756,2.756,0,0,1-1.177.577l-1.953.429A6.375,6.375,0,0,0,48,314.447v3.895h5.256v-3.895A6.375,6.375,0,0,1,57.824,308.334Z" transform="translate(-45.258 -289.664)" fill="#fff"/>
        <path id="Trazado_35772-2" data-name="Trazado 35772" d="M153.935,308.259c-.145-.043-.291-.081-.44-.114l-1.977-.432a2.756,2.756,0,0,1-1.183-.58l-.037.029a5.186,5.186,0,0,1-5.73,1.1A6.375,6.375,0,0,0,140,314.369v3.895h18.509v-3.891A6.375,6.375,0,0,0,153.935,308.259Z" transform="translate(-130.587 -289.587)" fill="url(#linear-gradient)"/>
        <path id="Trazado_35773-2" data-name="Trazado 35773" d="M421.708,346.172a.571.571,0,1,0,.817-.8l-.041-.042a.571.571,0,1,0-.81.806Z" transform="translate(-397.428 -325.446)" fill="#2e3641"/>
        <path id="Trazado_35774-2" data-name="Trazado 35774" d="M28.677,28.106h-1.6v-3.32a6.973,6.973,0,0,0-.748-3.136.571.571,0,0,0-1.019.516,5.826,5.826,0,0,1,.624,2.62v3.32H3.313V24.783a5.839,5.839,0,0,1,4.56-5.669l1.953-.429a3.291,3.291,0,0,0,1.03-.419,5.765,5.765,0,0,0,7.523.01,3.29,3.29,0,0,0,1.014.408l1.977.432a5.808,5.808,0,0,1,1.4.5.571.571,0,1,0,.52-1.018,6.953,6.953,0,0,0-1.676-.6l-1.977-.432a2.206,2.206,0,0,1-1.724-2.142v-.22a5.021,5.021,0,0,0,2.467-3.518h.268a1.632,1.632,0,0,0,1.63-1.631V8.976a1.632,1.632,0,0,0-1.63-1.63h-.2V5.008A5.014,5.014,0,0,0,15.443,0H13.806A5.014,5.014,0,0,0,8.8,5.008V7.345H8.6a1.632,1.632,0,0,0-1.63,1.63v1.081A1.632,1.632,0,0,0,8.6,11.687h.268a5.021,5.021,0,0,0,2.437,3.5v.239a2.206,2.206,0,0,1-1.723,2.142L7.629,18a6.947,6.947,0,0,0-5.458,6.785v3.324H.571a.571.571,0,0,0,0,1.143H28.677a.571.571,0,0,0,0-1.143ZM20.649,8.488a.488.488,0,0,1,.488.488v1.081a.488.488,0,0,1-.488.488h-.2V8.488ZM13.806,1.143h1.638a3.872,3.872,0,0,1,3.821,3.28.57.57,0,0,0-.125.094,9.6,9.6,0,0,1-6.83,2.829H9.94V5.008A3.87,3.87,0,0,1,13.806,1.143ZM8.112,10.057V8.976A.488.488,0,0,1,8.6,8.488h.2v2.057H8.6A.488.488,0,0,1,8.112,10.057Zm1.828.794V8.488h2.369a10.748,10.748,0,0,0,4.133-.822,10.741,10.741,0,0,0,2.866-1.753V10.85a3.87,3.87,0,0,1-3.866,3.866H13.806A3.87,3.87,0,0,1,9.94,10.85Zm3.866,5.008h1.638a5,5,0,0,0,1.338-.182,3.34,3.34,0,0,0,.73,1.835A4.62,4.62,0,0,1,11.72,17.5a3.338,3.338,0,0,0,.718-1.829A5,5,0,0,0,13.806,15.858Z" fill="#2e3641"/>
        <path id="Trazado_35775-2" data-name="Trazado 35775" d="M81.935,368.012a4.621,4.621,0,0,0-1.763,3.643.571.571,0,1,0,1.143,0,3.484,3.484,0,0,1,1.33-2.747.571.571,0,1,0-.709-.9Z" transform="translate(-75.592 -346.873)" fill="#2e3641"/>
        <path id="Trazado_35776-2" data-name="Trazado 35776" d="M136.214,354.191l-.026.006a.571.571,0,1,0,.248,1.115l.025-.005a.571.571,0,0,0-.246-1.116Z" transform="translate(-127.985 -333.945)" fill="#2e3641"/>
      </g>
    </g>
  </g>
</svg>
