<svg xmlns="http://www.w3.org/2000/svg" xmlns:xlink="http://www.w3.org/1999/xlink" width="50" height="50" viewBox="0 0 50 50">
  <defs>
    <linearGradient id="linear-gradient" x1="0.5" x2="0.5" y2="1" gradientUnits="objectBoundingBox">
      <stop offset="0" stop-color="#77e182"/>
      <stop offset="1" stop-color="#399c33"/>
    </linearGradient>
    <clipPath id="clip-jubilados">
      <rect width="50" height="50"/>
    </clipPath>
  </defs>
  <g id="jubilados" clip-path="url(#clip-jubilados)">
    <rect width="50" height="50" fill="#fff"/>
    <g id="Grupo_12464" data-name="Grupo 12464" transform="translate(-3447 7359.517)">
      <g id="old-man" transform="translate(3447 -7351.517)">
        <path id="Trazado_35594" data-name="Trazado 35594" d="M179.445,139.6v3.175h.665c1.069,0,2.016-.912,2.6-2.314a11.076,11.076,0,0,1-3.213-1.053c-.016.064-.033.128-.05.192Zm0,0" transform="translate(-167.503 -130.132)" fill="#fff"/>
        <path id="Trazado_35595" data-name="Trazado 35595" d="M282.723,140.472a11.175,11.175,0,0,0,3.61-.009,7.409,7.409,0,0,1-.344-1.053A11.066,11.066,0,0,1,282.723,140.472Zm0,0" transform="translate(-263.908 -130.132)" fill="#fff"/>
        <path id="Trazado_35596" data-name="Trazado 35596" d="M186.319,12.754a8.654,8.654,0,0,0-6.873,8.468v.152c.017-.063.034-.127.05-.192a11.064,11.064,0,0,0,3.213,1.053,11.167,11.167,0,0,0,3.61.009,11.066,11.066,0,0,0,3.266-1.062,7.407,7.407,0,0,0,.344,1.053c.582,1.4,1.528,2.313,2.6,2.313h.666V21.222a8.654,8.654,0,0,0-6.873-8.468Zm0,0" transform="translate(-167.504 -11.905)" fill="#fff"/>
        <path id="Trazado_35597" data-name="Trazado 35597" d="M281.857,140.35a7.485,7.485,0,0,1-.3-.94,11.073,11.073,0,0,1-3.582,1.108,11.187,11.187,0,0,0,3.88-.168Zm0,0" transform="translate(-259.477 -130.132)" fill="#fff"/>
        <path id="Trazado_35598" data-name="Trazado 35598" d="M191.218,155.4A7.937,7.937,0,0,0,193,150.387h.665a2,2,0,1,0,0-3.993H193c-1.1,0-2.066-.962-2.643-2.426a11.176,11.176,0,0,1-3.88.168,11.172,11.172,0,0,1-3.881-.168,10.216,10.216,0,0,0-2.643-.682v7.1a8.016,8.016,0,0,0,6.523,7.85,8.008,8.008,0,0,0,4.746-2.842Zm0,0" transform="translate(-167.973 -133.75)" fill="#fff"/>
        <path id="Trazado_35599" data-name="Trazado 35599" d="M189.841,326.821a13.4,13.4,0,0,0-2.313-1.559,8.027,8.027,0,0,1-4.212,2.723,7.941,7.941,0,0,1-6.525-1.164,5.081,5.081,0,0,1-.8-.681v10.884h14.641v-9.482Q190.254,327.166,189.841,326.821Zm0,0" transform="translate(-164.283 -303.616)" fill="#fff"/>
        <path id="Trazado_35600" data-name="Trazado 35600" d="M86,403.98h2v-6.988A13.2,13.2,0,0,0,86,403.98Zm0,0" transform="translate(-80.277 -370.572)" fill="#fff" fill-rule="evenodd"/>
        <path id="Trazado_35601" data-name="Trazado 35601" d="M396,359.527v9.482h3.993A13.269,13.269,0,0,0,396,359.527Zm0,0" transform="translate(-369.646 -335.6)" fill="#fff" fill-rule="evenodd"/>
        <g id="Grupo_12408" data-name="Grupo 12408" transform="translate(0 0)">
          <path id="Trazado_35602" data-name="Trazado 35602" d="M246.665,432.667a.666.666,0,0,0,.666-.666v-.032a.666.666,0,0,0-1.331,0V432A.665.665,0,0,0,246.665,432.667Zm0,0" transform="translate(-229.629 -402.601)" fill="#fff"/>
          <path id="Trazado_35603" data-name="Trazado 35603" d="M.681,492H.666a.665.665,0,1,0,0,1.331H.681a.665.665,0,1,0,0-1.331Zm0,0" transform="translate(0 -459.257)" fill="#fff"/>
          <path id="Trazado_35604" data-name="Trazado 35604" d="M58.521,32.742h-.484a13.968,13.968,0,0,0-6.766-11.3A8.6,8.6,0,0,0,52.7,17.3h.025a2.662,2.662,0,0,0,.666-5.24V9.317a9.317,9.317,0,1,0-18.634,0v2.746a2.662,2.662,0,0,0,.666,5.24h.025a8.6,8.6,0,0,0,1.433,4.137,13.968,13.968,0,0,0-6.766,11.3h-.484a.665.665,0,1,0,0,1.331H58.521a.665.665,0,1,0,0-1.331ZM54.06,25.662A12.59,12.59,0,0,1,56.7,32.742H54.06ZM44.077,1.331a8,8,0,0,1,7.986,7.986v2.662c-.949,0-1.871-1.15-2.3-2.861a.666.666,0,0,0-.948-.433,10.367,10.367,0,0,1-4.743,1.132,10.373,10.373,0,0,1-4.743-1.132.665.665,0,0,0-.948.433c-.425,1.712-1.347,2.861-2.3,2.862V9.317a8,8,0,0,1,7.986-7.986ZM36.091,15.972h-.666a1.331,1.331,0,1,1,0-2.662h.666c1.414,0,2.682-1.194,3.357-3.1a11.69,11.69,0,0,0,4.629.941,11.688,11.688,0,0,0,4.628-.941c.676,1.909,1.943,3.1,3.357,3.1h.666a1.331,1.331,0,1,1,0,2.662h-.666a.666.666,0,0,0-.666.665,7.284,7.284,0,0,1-1.571,4.527.67.67,0,0,0-.106.131,7.312,7.312,0,0,1-11.286,0,.655.655,0,0,0-.106-.131,7.285,7.285,0,0,1-1.571-4.527.666.666,0,0,0-.666-.665Zm7.32,9.292v2.17a.666.666,0,1,0,1.331,0v-2.17a8.634,8.634,0,0,0,5.7-2.77,12.823,12.823,0,0,1,2.29,1.71v8.539h-17.3V24.2a12.808,12.808,0,0,1,2.289-1.709,8.634,8.634,0,0,0,5.7,2.769Zm-9.317.4v7.081H31.45A12.589,12.589,0,0,1,34.095,25.662Zm0,0" transform="translate(-27.041 0)" fill="#fff"/>
          <path id="Trazado_35605" data-name="Trazado 35605" d="M492.443,492h-.016a.665.665,0,1,0,0,1.331h.016a.665.665,0,0,0,0-1.331Zm0,0" transform="translate(-459.035 -459.257)" fill="#fff"/>
          <path id="Trazado_35606" data-name="Trazado 35606" d="M176.994,221.6a2,2,0,0,1,2,0,.666.666,0,1,0,.666-1.153,3.327,3.327,0,0,0-3.328,0,.666.666,0,0,0,.666,1.153Zm0,0" transform="translate(-164.283 -205.362)" fill="#fff"/>
          <path id="Trazado_35607" data-name="Trazado 35607" d="M276.993,221.6a2,2,0,0,1,2,0,.666.666,0,0,0,.666-1.153,3.328,3.328,0,0,0-3.328,0,.666.666,0,1,0,.666,1.153Zm0,0" transform="translate(-257.627 -205.362)" fill="#fff"/>
          <path id="Trazado_35608" data-name="Trazado 35608" d="M226.084,294a.665.665,0,0,0,.244.909,3.329,3.329,0,0,0,3.327,0,.666.666,0,0,0-.665-1.153,2,2,0,0,1-2,0A.666.666,0,0,0,226.084,294Zm0,0" transform="translate(-210.955 -274.125)" fill="#fff"/>
          <path id="Trazado_35609" data-name="Trazado 35609" d="M179.69,91.1a5.438,5.438,0,0,0,2.647,1.163.645.645,0,0,0,.1.007.666.666,0,0,0,.1-1.324,4.107,4.107,0,0,1-2-.878.666.666,0,1,0-.84,1.032Zm0,0" transform="translate(-167.502 -83.937)" fill="#fff"/>
          <path id="Trazado_35610" data-name="Trazado 35610" d="M243.819,104.9a.662.662,0,0,0,.147-.016c.021,0,.048-.012.068-.019a.666.666,0,1,0-.214.035Zm0,0" transform="translate(-226.972 -96.673)" fill="#fff"/>
        </g>
      </g>
      <g id="old-woman" transform="translate(3462.926 -7351.517)">
        <path id="Trazado_35611" data-name="Trazado 35611" d="M152.849,27.991a3.015,3.015,0,0,0-1.038-.666A14.76,14.76,0,0,0,152.333,24c.231-6.947-5.779-9.009-7.741-8.088a9.454,9.454,0,0,0-4.641-2.545,9.451,9.451,0,0,0-7.136,11.453c4.426-3.292,9.015,1.23,11.776-5.264a8.387,8.387,0,0,0,1.659,3.131,8.973,8.973,0,0,0,2.5,1.591v4.836a7.912,7.912,0,0,1-.494,2.757,3.019,3.019,0,1,0,4.59-3.882Zm0,0" transform="translate(-123.729 -12.478)" fill="#e3e3e3"/>
        <path id="Trazado_35612" data-name="Trazado 35612" d="M198.271,128.168a7.936,7.936,0,0,0,1.778-5.008v-4.836a28.391,28.391,0,0,1-4.351-4.207c-1.9,3.413-5.354,3.233-8.194,3.413v5.631a7.939,7.939,0,0,0,1.778,5.008,8.064,8.064,0,0,0,2.215,1.9,7.932,7.932,0,0,0,2.279.89,7.931,7.931,0,0,0,2.279-.89,8.068,8.068,0,0,0,2.215-1.9Zm0,0" transform="translate(-175.026 -106.523)" fill="#fff"/>
        <path id="Trazado_35613" data-name="Trazado 35613" d="M88,407.043H89.86v-6.77A13.2,13.2,0,0,0,88,407.043Zm0,0" transform="translate(-82.14 -373.635)" fill-rule="evenodd" fill="url(#linear-gradient)"/>
        <path id="Trazado_35614" data-name="Trazado 35614" d="M177.487,359.771l-2.915,2.455-1.474-4.12-.1.094v9.482h5.524V358.9Zm0,0" transform="translate(-161.487 -334.273)" fill="url(#linear-gradient)"/>
        <path id="Trazado_35615" data-name="Trazado 35615" d="M203.023,356.582a7.913,7.913,0,0,1-3.777-.957l1.138,3.179Zm0,0" transform="translate(-185.986 -331.958)" fill="#267e3d" fill-rule="evenodd"/>
        <path id="Trazado_35616" data-name="Trazado 35616" d="M396.008,369v-9.482a13.48,13.48,0,0,1,1.623,1.924A13.214,13.214,0,0,1,400,369Zm0,0" transform="translate(-369.654 -335.597)" fill-rule="evenodd" fill="url(#linear-gradient)"/>
        <path id="Trazado_35617" data-name="Trazado 35617" d="M265.321,327.535v9.482H256v-8.784l3.952,3.328,2.256-6.3s0,0,0,0a13.439,13.439,0,0,1,3.109,2.281Zm0,0" transform="translate(-238.967 -303.608)" fill-rule="evenodd" fill="url(#linear-gradient)"/>
        <path id="Trazado_35618" data-name="Trazado 35618" d="M262.216,325.27l-2.256,6.3-3.952-3.328A7.98,7.98,0,0,0,262.216,325.27Zm0,0" transform="translate(-238.97 -303.623)" fill="#267e3d" fill-rule="evenodd"/>
        <g id="Grupo_12409" data-name="Grupo 12409" transform="translate(0 0)">
          <path id="Trazado_35619" data-name="Trazado 35619" d="M186.313,221.429a.666.666,0,0,0,.173-.023,2,2,0,0,1,1.032,0,.666.666,0,1,0,.345-1.286,3.339,3.339,0,0,0-1.723,0,.666.666,0,0,0,.172,1.308Zm0,0" transform="translate(-173.292 -205.366)" fill="#2e3641"/>
          <path id="Trazado_35620" data-name="Trazado 35620" d="M286.485,221.406a2,2,0,0,1,1.033,0,.666.666,0,0,0,.345-1.285,3.34,3.34,0,0,0-1.724,0,.666.666,0,0,0,.345,1.285Zm0,0" transform="translate(-266.637 -205.366)" fill="#2e3641"/>
          <path id="Trazado_35621" data-name="Trazado 35621" d="M226.334,294.9a3.326,3.326,0,0,0,3.328,0,.665.665,0,1,0-.666-1.152,2,2,0,0,1-2,0,.665.665,0,1,0-.666,1.152Zm0,0" transform="translate(-210.961 -274.119)" fill="#2e3641"/>
          <path id="Trazado_35622" data-name="Trazado 35622" d="M103.422,95.593a6.109,6.109,0,0,1,.7-2.073.665.665,0,1,0-1.164-.646A7.433,7.433,0,0,0,102.1,95.4a.666.666,0,0,0,1.317.2Zm0,0" transform="translate(-95.303 -86.373)" fill="#2e3641"/>
          <path id="Trazado_35623" data-name="Trazado 35623" d="M131.427,71.229a.664.664,0,0,0,.468-.192l.014-.014a.666.666,0,1,0-.947-.936l0,0a.665.665,0,0,0,.468,1.139Zm0,0" transform="translate(-122.059 -65.239)" fill="#2e3641"/>
          <path id="Trazado_35624" data-name="Trazado 35624" d="M.681,492H.666a.665.665,0,1,0,0,1.331H.681a.665.665,0,1,0,0-1.331Zm0,0" transform="translate(0 -459.254)" fill="#2e3641"/>
          <path id="Trazado_35625" data-name="Trazado 35625" d="M492.447,492h-.016a.665.665,0,1,0,0,1.331h.016a.665.665,0,1,0,0-1.331Zm0,0" transform="translate(-459.039 -459.254)" fill="#2e3641"/>
          <path id="Trazado_35626" data-name="Trazado 35626" d="M58.52,32.742h-.484a13.969,13.969,0,0,0-6.766-11.3,8.7,8.7,0,0,0,.511-.867A3.683,3.683,0,1,0,55.9,14.485c1.385-5.852-.971-8.891-2.533-10.2a6.4,6.4,0,0,0-5.3-1.613A10.119,10.119,0,0,0,32.127,14.563a3.683,3.683,0,1,0,4.246,6.01,8.662,8.662,0,0,0,.511.866,13.969,13.969,0,0,0-6.767,11.3h-.484a.666.666,0,1,0,0,1.331H58.52a.666.666,0,0,0,0-1.331ZM35.425,24.2a12.8,12.8,0,0,1,2.084-1.586L39.5,28.176a.665.665,0,0,0,1.055.285l2.858-2.406v6.688H35.425Zm1.8-4.993a.711.711,0,0,0-.033-.088,7.287,7.287,0,0,1-.435-2.485V12.71A8.024,8.024,0,0,1,41.582,11.6c2.221-.026,4.509-.053,6.243-2.9A5.845,5.845,0,0,0,51.009,12c.133.066.263.13.389.2v4.445a7.291,7.291,0,0,1-.434,2.484.654.654,0,0,0-.034.092,7.319,7.319,0,0,1-1.1,1.949l-.027.027-.011.012-.03.036-.011.015c-.009.012-.018.025-.026.039l0,.007a7.312,7.312,0,0,1-11.281,0l-.009-.013-.016-.023-.023-.03-.019-.023-.023-.026-.018-.018a7.316,7.316,0,0,1-1.1-1.955ZM48.772,23.9l-1.046,2.924-2.01-1.693A8.594,8.594,0,0,0,48.772,23.9Zm-6.333,1.232-2.01,1.693L39.382,23.9a8.6,8.6,0,0,0,3.057,1.232Zm2.3.921L47.6,28.46a.666.666,0,0,0,1.055-.285l1.989-5.558A12.807,12.807,0,0,1,52.728,24.2v8.539H44.742Zm9.317-.392A12.589,12.589,0,0,1,56.7,32.742H54.059ZM34.109,20.02a2.353,2.353,0,0,1-.84-4.552.662.662,0,0,0,.251-.171h0c.015-.016.028-.032.041-.048l0,0c.012-.016.024-.033.034-.05l0,0q.016-.025.029-.052l0,0c.009-.018.016-.036.023-.055l0,0c.007-.019.013-.038.018-.057v0c.005-.019.009-.038.013-.058v0c0-.019.005-.037.007-.056v-.009c0-.017,0-.035,0-.053s0-.009,0-.014,0-.031,0-.047,0-.014,0-.021,0-.027-.007-.04,0-.018-.006-.027l-.009-.034-.01-.031s0-.009,0-.014l-.008-.018-.013-.03-.017-.033-.008-.015A8.788,8.788,0,0,1,47.433,3.9l.011.009.03.027.022.018.028.02L47.552,4l.024.015.034.018.022.01.038.016.022.008.038.012.025.006.036.008.03,0,.032,0,.034,0h.029l.035,0,.029,0,.034,0,.032-.006.029-.007.036-.011.025-.009.039-.016.012,0c.753-.354,2.676-.109,4.326,1.271,1.366,1.143,3.437,3.878,1.967,9.366a.683.683,0,0,0-.022.134c0,.007,0,.014,0,.02s0,.03,0,.045,0,.022,0,.034,0,.021,0,.031,0,.025.007.038,0,.017,0,.025.007.025.011.038,0,.016.007.024.009.022.013.033l.011.027c0,.009.009.018.014.027s.01.021.016.03l.013.021.022.034.012.016c.009.012.017.023.027.035l.014.015c.01.011.02.022.031.032l.018.016.03.026.03.021.023.016.052.029.005,0a.65.65,0,0,0,.063.028,2.353,2.353,0,1,1-2.566,3.8,8.618,8.618,0,0,0,.409-2.629V13.231l.056.067a.665.665,0,0,0,1.037-.834,5.189,5.189,0,0,0-1.438-1.245l0,0c-.269-.16-.532-.29-.782-.413-1.12-.552-2.086-1.029-3.063-3.936a.666.666,0,0,0-1.243-.048c-1.446,3.4-3.334,3.424-5.724,3.452-2.117.025-4.516.053-6.836,2.414a.666.666,0,0,0,.475,1.132.673.673,0,0,0,.22-.038v2.859a8.619,8.619,0,0,0,.409,2.629,2.354,2.354,0,0,1-1.725.754Zm-.015,5.641v7.081H31.45A12.589,12.589,0,0,1,34.094,25.661Zm0,0" transform="translate(-27.04 0)" fill="#2e3641"/>
          <path id="Trazado_35627" data-name="Trazado 35627" d="M282.3,439.855h-.016a.666.666,0,0,0,0,1.331h.016a.666.666,0,1,0,0-1.331Zm0,0" transform="translate(-262.876 -410.583)" fill="#2e3641"/>
        </g>
      </g>
      <g id="old-man-2" data-name="old-man" transform="translate(3447 -7351.517)">
        <path id="Trazado_35594-2" data-name="Trazado 35594" d="M179.445,139.6v3.175h.665c1.069,0,2.016-.912,2.6-2.314a11.076,11.076,0,0,1-3.213-1.053c-.016.064-.033.128-.05.192Zm0,0" transform="translate(-167.503 -130.132)" fill="#fffaeb"/>
        <path id="Trazado_35595-2" data-name="Trazado 35595" d="M282.723,140.472a11.175,11.175,0,0,0,3.61-.009,7.409,7.409,0,0,1-.344-1.053A11.066,11.066,0,0,1,282.723,140.472Zm0,0" transform="translate(-263.908 -130.132)" fill="#fffaeb"/>
        <path id="Trazado_35596-2" data-name="Trazado 35596" d="M186.319,12.754a8.654,8.654,0,0,0-6.873,8.468v.152c.017-.063.034-.127.05-.192a11.064,11.064,0,0,0,3.213,1.053,11.167,11.167,0,0,0,3.61.009,11.066,11.066,0,0,0,3.266-1.062,7.407,7.407,0,0,0,.344,1.053c.582,1.4,1.528,2.313,2.6,2.313h.666V21.222a8.654,8.654,0,0,0-6.873-8.468Zm0,0" transform="translate(-167.504 -11.905)" fill="#e3e3e3"/>
        <path id="Trazado_35597-2" data-name="Trazado 35597" d="M281.857,140.35a7.485,7.485,0,0,1-.3-.94,11.073,11.073,0,0,1-3.582,1.108,11.187,11.187,0,0,0,3.88-.168Zm0,0" transform="translate(-259.477 -130.132)" fill="#fcd0ac"/>
        <path id="Trazado_35598-2" data-name="Trazado 35598" d="M191.218,155.4A7.937,7.937,0,0,0,193,150.387h.665a2,2,0,1,0,0-3.993H193c-1.1,0-2.066-.962-2.643-2.426a11.176,11.176,0,0,1-3.88.168,11.172,11.172,0,0,1-3.881-.168,10.216,10.216,0,0,0-2.643-.682v7.1a8.016,8.016,0,0,0,6.523,7.85,8.008,8.008,0,0,0,4.746-2.842Zm0,0" transform="translate(-167.973 -133.75)" fill="#fff"/>
        <path id="Trazado_35599-2" data-name="Trazado 35599" d="M189.841,326.821a13.4,13.4,0,0,0-2.313-1.559,8.027,8.027,0,0,1-4.212,2.723,7.941,7.941,0,0,1-6.525-1.164,5.081,5.081,0,0,1-.8-.681v10.884h14.641v-9.482Q190.254,327.166,189.841,326.821Zm0,0" transform="translate(-164.283 -303.616)" fill="url(#linear-gradient)"/>
        <path id="Trazado_35600-2" data-name="Trazado 35600" d="M86,403.98h2v-6.988A13.2,13.2,0,0,0,86,403.98Zm0,0" transform="translate(-80.277 -370.572)" fill-rule="evenodd" fill="url(#linear-gradient)"/>
        <path id="Trazado_35601-2" data-name="Trazado 35601" d="M396,359.527v9.482h3.993A13.269,13.269,0,0,0,396,359.527Zm0,0" transform="translate(-369.646 -335.6)" fill-rule="evenodd" fill="url(#linear-gradient)"/>
        <g id="Grupo_12408-2" data-name="Grupo 12408" transform="translate(0 0)">
          <path id="Trazado_35602-2" data-name="Trazado 35602" d="M246.665,432.667a.666.666,0,0,0,.666-.666v-.032a.666.666,0,0,0-1.331,0V432A.665.665,0,0,0,246.665,432.667Zm0,0" transform="translate(-229.629 -402.601)" fill="#2e3641"/>
          <path id="Trazado_35603-2" data-name="Trazado 35603" d="M.681,492H.666a.665.665,0,1,0,0,1.331H.681a.665.665,0,1,0,0-1.331Zm0,0" transform="translate(0 -459.257)" fill="#2e3641"/>
          <path id="Trazado_35604-2" data-name="Trazado 35604" d="M58.521,32.742h-.484a13.968,13.968,0,0,0-6.766-11.3A8.6,8.6,0,0,0,52.7,17.3h.025a2.662,2.662,0,0,0,.666-5.24V9.317a9.317,9.317,0,1,0-18.634,0v2.746a2.662,2.662,0,0,0,.666,5.24h.025a8.6,8.6,0,0,0,1.433,4.137,13.968,13.968,0,0,0-6.766,11.3h-.484a.665.665,0,1,0,0,1.331H58.521a.665.665,0,1,0,0-1.331ZM54.06,25.662A12.59,12.59,0,0,1,56.7,32.742H54.06ZM44.077,1.331a8,8,0,0,1,7.986,7.986v2.662c-.949,0-1.871-1.15-2.3-2.861a.666.666,0,0,0-.948-.433,10.367,10.367,0,0,1-4.743,1.132,10.373,10.373,0,0,1-4.743-1.132.665.665,0,0,0-.948.433c-.425,1.712-1.347,2.861-2.3,2.862V9.317a8,8,0,0,1,7.986-7.986ZM36.091,15.972h-.666a1.331,1.331,0,1,1,0-2.662h.666c1.414,0,2.682-1.194,3.357-3.1a11.69,11.69,0,0,0,4.629.941,11.688,11.688,0,0,0,4.628-.941c.676,1.909,1.943,3.1,3.357,3.1h.666a1.331,1.331,0,1,1,0,2.662h-.666a.666.666,0,0,0-.666.665,7.284,7.284,0,0,1-1.571,4.527.67.67,0,0,0-.106.131,7.312,7.312,0,0,1-11.286,0,.655.655,0,0,0-.106-.131,7.285,7.285,0,0,1-1.571-4.527.666.666,0,0,0-.666-.665Zm7.32,9.292v2.17a.666.666,0,1,0,1.331,0v-2.17a8.634,8.634,0,0,0,5.7-2.77,12.823,12.823,0,0,1,2.29,1.71v8.539h-17.3V24.2a12.808,12.808,0,0,1,2.289-1.709,8.634,8.634,0,0,0,5.7,2.769Zm-9.317.4v7.081H31.45A12.589,12.589,0,0,1,34.095,25.662Zm0,0" transform="translate(-27.041 0)" fill="#2e3641"/>
          <path id="Trazado_35605-2" data-name="Trazado 35605" d="M492.443,492h-.016a.665.665,0,1,0,0,1.331h.016a.665.665,0,0,0,0-1.331Zm0,0" transform="translate(-459.035 -459.257)" fill="#2e3641"/>
          <path id="Trazado_35606-2" data-name="Trazado 35606" d="M176.994,221.6a2,2,0,0,1,2,0,.666.666,0,1,0,.666-1.153,3.327,3.327,0,0,0-3.328,0,.666.666,0,0,0,.666,1.153Zm0,0" transform="translate(-164.283 -205.362)" fill="#2e3641"/>
          <path id="Trazado_35607-2" data-name="Trazado 35607" d="M276.993,221.6a2,2,0,0,1,2,0,.666.666,0,0,0,.666-1.153,3.328,3.328,0,0,0-3.328,0,.666.666,0,1,0,.666,1.153Zm0,0" transform="translate(-257.627 -205.362)" fill="#2e3641"/>
          <path id="Trazado_35608-2" data-name="Trazado 35608" d="M226.084,294a.665.665,0,0,0,.244.909,3.329,3.329,0,0,0,3.327,0,.666.666,0,0,0-.665-1.153,2,2,0,0,1-2,0A.666.666,0,0,0,226.084,294Zm0,0" transform="translate(-210.955 -274.125)" fill="#2e3641"/>
          <path id="Trazado_35609-2" data-name="Trazado 35609" d="M179.69,91.1a5.438,5.438,0,0,0,2.647,1.163.645.645,0,0,0,.1.007.666.666,0,0,0,.1-1.324,4.107,4.107,0,0,1-2-.878.666.666,0,1,0-.84,1.032Zm0,0" transform="translate(-167.502 -83.937)" fill="#2e3641"/>
          <path id="Trazado_35610-2" data-name="Trazado 35610" d="M243.819,104.9a.662.662,0,0,0,.147-.016c.021,0,.048-.012.068-.019a.666.666,0,1,0-.214.035Zm0,0" transform="translate(-226.972 -96.673)" fill="#2e3641"/>
        </g>
      </g>
    </g>
  </g>
</svg>
