<svg xmlns="http://www.w3.org/2000/svg" xmlns:xlink="http://www.w3.org/1999/xlink" width="50" height="50" viewBox="0 0 50 50">
  <defs>
    <linearGradient id="linear-gradient" x1="0.5" x2="0.5" y2="1" gradientUnits="objectBoundingBox">
      <stop offset="0" stop-color="#77e182"/>
      <stop offset="1" stop-color="#399c33"/>
    </linearGradient>
    <clipPath id="clip-mejor_seguro">
      <rect width="50" height="50"/>
    </clipPath>
  </defs>
  <g id="mejor_seguro" clip-path="url(#clip-mejor_seguro)">
    <g id="sports-activities_trophy" transform="translate(-7 1)">
      <g id="XMLID_161_" transform="translate(-1 -3)">
        <path id="Trazado_23166" data-name="Trazado 23166" d="M34,38h0A15,15,0,0,1,19,23V4H49V23A15,15,0,0,1,34,38Z" fill="url(#linear-gradient)"/>
      </g>
      <g id="XMLID_184_" transform="translate(0 -16)">
        <path id="Trazado_23167" data-name="Trazado 23167" d="M50,64H14a3,3,0,0,1,0-6H50a3,3,0,0,1,0,6ZM14,60a1,1,0,0,0,0,2H50a1,1,0,0,0,0-2Z" fill="#2e3641"/>
      </g>
      <g id="XMLID_25_">
        <path id="Trazado_23171" data-name="Trazado 23171" d="M23.161,44a1,1,0,0,1-.647-1.763,13.616,13.616,0,0,0,4.2-8.038,1,1,0,1,1,1.971.341,15.419,15.419,0,0,1-4.878,9.222A1,1,0,0,1,23.161,44Z" fill="#2e3641"/>
      </g>
      <g id="XMLID_24_">
        <path id="Trazado_23172" data-name="Trazado 23172" d="M40.839,44a1,1,0,0,1-.646-.237,15.419,15.419,0,0,1-4.878-9.222,1,1,0,1,1,1.971-.341,13.616,13.616,0,0,0,4.2,8.038A1,1,0,0,1,40.839,44Z" fill="#2e3641"/>
      </g>
      <g id="XMLID_21_">
        <path id="Trazado_23173" data-name="Trazado 23173" d="M32,36A16.018,16.018,0,0,1,16,20V1a1,1,0,0,1,1-1H47a1,1,0,0,1,1,1V20A16.018,16.018,0,0,1,32,36ZM18,2V20a14,14,0,0,0,28,0V2Z" fill="#2e3641"/>
      </g>
      <g id="XMLID_19_">
        <path id="Trazado_23174" data-name="Trazado 23174" d="M17,20H13a1,1,0,0,1-.961-.725l-4-14A1,1,0,0,1,9,4h8a1,1,0,0,1,1,1V19A1,1,0,0,1,17,20Zm-3.246-2H16V6H10.326Z" fill="#2e3641"/>
      </g>
      <g id="XMLID_20_">
        <path id="Trazado_23175" data-name="Trazado 23175" d="M51,20H47a1,1,0,0,1-1-1V5a1,1,0,0,1,1-1h8a1,1,0,0,1,.961,1.275l-4,14A1,1,0,0,1,51,20Zm-3-2h2.246L53.674,6H48Z" fill="#2e3641"/>
      </g>
      <g id="XMLID_22_">
        <path id="Trazado_23176" data-name="Trazado 23176" d="M32,32a.99.99,0,1,1,.71-.29A1.052,1.052,0,0,1,32,32Z" fill="#2e3641"/>
      </g>
      <g id="XMLID_23_">
        <path id="Trazado_23177" data-name="Trazado 23177" d="M36,32a.99.99,0,1,1,.71-.29A1.052,1.052,0,0,1,36,32Z" fill="#2e3641"/>
      </g>
      <g id="XMLID_26_">
        <path id="Trazado_23178" data-name="Trazado 23178" d="M28,32a.99.99,0,1,1,.71-.29A1.052,1.052,0,0,1,28,32Z" fill="#2e3641"/>
      </g>
      <g id="XMLID_29_">
        <path id="Trazado_23179" data-name="Trazado 23179" d="M32,28a.99.99,0,1,1,.71-.29A1.052,1.052,0,0,1,32,28Z" fill="#2e3641"/>
      </g>
      <g id="XMLID_28_">
        <path id="Trazado_23180" data-name="Trazado 23180" d="M36,28a.99.99,0,1,1,.71-.29A1.052,1.052,0,0,1,36,28Z" fill="#2e3641"/>
      </g>
      <g id="XMLID_27_">
        <path id="Trazado_23181" data-name="Trazado 23181" d="M28,28a.99.99,0,1,1,.71-.29A1.052,1.052,0,0,1,28,28Z" fill="#2e3641"/>
      </g>
      <g id="XMLID_30_">
        <path id="Trazado_23182" data-name="Trazado 23182" d="M40,28a.99.99,0,1,1,.71-.29A1.052,1.052,0,0,1,40,28Z" fill="#2e3641"/>
      </g>
      <g id="XMLID_36_">
        <path id="Trazado_23183" data-name="Trazado 23183" d="M24,28a.99.99,0,1,1,.71-.29A1.052,1.052,0,0,1,24,28Z" fill="#2e3641"/>
      </g>
      <g id="XMLID_41_">
        <path id="Trazado_23184" data-name="Trazado 23184" d="M32,24a.99.99,0,0,1-1-1,1.032,1.032,0,0,1,.29-.71A1,1,0,1,1,32,24Z" fill="#2e3641"/>
      </g>
      <g id="XMLID_38_">
        <path id="Trazado_23185" data-name="Trazado 23185" d="M40,24a.99.99,0,1,1,.71-.29A1.052,1.052,0,0,1,40,24Z" fill="#2e3641"/>
      </g>
      <g id="XMLID_37_">
        <path id="Trazado_23186" data-name="Trazado 23186" d="M24,24a.99.99,0,1,1,.71-.29A1.052,1.052,0,0,1,24,24Z" fill="#2e3641"/>
      </g>
      <g id="XMLID_45_">
        <path id="Trazado_23187" data-name="Trazado 23187" d="M47,10H17a1,1,0,0,1,0-2H47a1,1,0,0,1,0,2Z" fill="#2e3641"/>
      </g>
    </g>
  </g>
</svg>
