<svg xmlns="http://www.w3.org/2000/svg" xmlns:xlink="http://www.w3.org/1999/xlink" width="50" height="50" viewBox="0 0 50 50">
  <defs>
    <linearGradient id="linear-gradient" x1="0.5" x2="0.5" y2="1" gradientUnits="objectBoundingBox">
      <stop offset="0" stop-color="#77e182"/>
      <stop offset="1" stop-color="#399c33"/>
    </linearGradient>
    <clipPath id="clip-nacionalidad">
      <rect width="50" height="50"/>
    </clipPath>
  </defs>
  <g id="nacionalidad" clip-path="url(#clip-nacionalidad)">
    <rect width="50" height="50" fill="#fff"/>
    <g id="communication" transform="translate(0 0)">
      <path id="Trazado_35752" data-name="Trazado 35752" d="M354.536,398.938l-2.564-.474a1.218,1.218,0,0,0-1.781,0l-2.563.474a5.247,5.247,0,0,0-4.293,5.159v4.128h15.495V404.1A5.247,5.247,0,0,0,354.536,398.938Z" transform="translate(-309.805 -359.202)" fill="#32bf57"/>
      <path id="Trazado_35753" data-name="Trazado 35753" d="M356.39,381.232l3.283,5.25,3.282-5.25-3.282-1.877Z" transform="translate(-321.586 -342.309)" fill="#ffefd5"/>
      <path id="Trazado_35754" data-name="Trazado 35754" d="M383.32,229.96a5.664,5.664,0,0,0-3.32,5.156v1.059a6.221,6.221,0,0,0,2.852-1.921h0l2.682,1.576a6.22,6.22,0,0,0,1.107-.7v-.01A5.663,5.663,0,0,0,383.32,229.96Z" transform="translate(-342.891 -207.503)" fill="#e3e3e3"/>
      <path id="Trazado_35755" data-name="Trazado 35755" d="M86.536,398.938l-2.564-.474a2.156,2.156,0,0,1-.891-.387,2.156,2.156,0,0,1-.891.387l-2.563.474a5.247,5.247,0,0,0-4.293,5.159v4.128H90.829V404.1A5.247,5.247,0,0,0,86.536,398.938Z" transform="translate(-67.977 -359.202)" fill="#267e3d"/>
      <g id="Grupo_12462" data-name="Grupo 12462" transform="translate(8.632 27.864)">
        <path id="Trazado_35756" data-name="Trazado 35756" d="M88.39,381.232l3.283,5.25,3.282-5.25-3.293-1.877Z" transform="translate(-88.39 -370.172)" fill="#fff"/>
        <path id="Trazado_35757" data-name="Trazado 35757" d="M382.15,294.025a5.664,5.664,0,0,0,3.38-5.183v-3.519H378.77v3.519A5.664,5.664,0,0,0,382.15,294.025Z" transform="translate(-350.413 -285.323)" fill="#fff"/>
        <path id="Trazado_35758" data-name="Trazado 35758" d="M114.15,294.025a5.664,5.664,0,0,0,3.38-5.183v-3.519H110.77v3.519A5.664,5.664,0,0,0,114.15,294.025Z" transform="translate(-108.584 -285.323)" fill="#fff"/>
      </g>
      <path id="Trazado_35759" data-name="Trazado 35759" d="M114.15,229.682a5.664,5.664,0,0,0-3.38,5.183v1.1A6.22,6.22,0,0,0,113.742,234h0l2.627,1.543a6.221,6.221,0,0,0,1.16-.766A5.664,5.664,0,0,0,114.15,229.682Z" transform="translate(-99.953 -207.252)" fill="#e3e3e3"/>
      <path id="Trazado_35760" data-name="Trazado 35760" d="M186.967,10.629h-2.444a5.579,5.579,0,0,0-5.579,5.579v8.984a5.559,5.559,0,0,0,1.447,3.749l1.186-1.186h9.784l3.016,3.016h1.054V27.755h1.9a4.761,4.761,0,0,0,4.761-4.761V15.328a4.761,4.761,0,0,0-4-4.7H186.967Z" transform="translate(-161.469 -9.591)" fill="url(#linear-gradient)"/>
      <circle id="Elipse_119" data-name="Elipse 119" cx="4.855" cy="4.855" r="4.855" transform="translate(20.145 4.368)" fill="#fff"/>
      <path id="Trazado_35761" data-name="Trazado 35761" d="M381.877,492.6a.986.986,0,0,0-.09-.168.976.976,0,0,0-.437-.359,1.023,1.023,0,0,0-.184-.057.987.987,0,0,0-.881.268.93.93,0,0,0-.121.149.992.992,0,0,0-.09.168.941.941,0,0,0-.056.184.937.937,0,0,0,0,.381.908.908,0,0,0,.056.183.97.97,0,0,0,.09.169.935.935,0,0,0,.121.148.984.984,0,0,0,.69.286.963.963,0,0,0,.19-.02.946.946,0,0,0,.184-.056.988.988,0,0,0,.168-.09.949.949,0,0,0,.27-.27.968.968,0,0,0,.09-.169.986.986,0,0,0,.056-.183.938.938,0,0,0,0-.381A1.021,1.021,0,0,0,381.877,492.6Z" transform="translate(-342.89 -443.955)" fill="#2e3641"/>
      <path id="Trazado_35762" data-name="Trazado 35762" d="M44.908,38.776,42.343,38.3A1.182,1.182,0,0,1,42,38.18a.986.986,0,0,0-.114-.084c-.026-.016-.052-.03-.079-.044a1.186,1.186,0,0,1-.434-.9,6.643,6.643,0,0,0,3.354-5.767V27.613a6.638,6.638,0,0,0-9.789-5.845V19.141h.927A5.744,5.744,0,0,0,41.6,13.4V5.737A5.744,5.744,0,0,0,35.864,0H25.021a.977.977,0,1,0,0,1.953H35.864a3.788,3.788,0,0,1,3.784,3.784V13.4a3.788,3.788,0,0,1-3.784,3.784h-1.9a.977.977,0,0,0-.977.977v1.711l-2.4-2.4a.977.977,0,0,0-.691-.286H20.108a.977.977,0,0,0-.691.286l-2.4,2.4V18.164a.977.977,0,0,0-.977-.977h-1.9A3.788,3.788,0,0,1,10.352,13.4V5.737a3.788,3.788,0,0,1,3.784-3.784h2.086a.977.977,0,0,0,0-1.953H14.136A5.744,5.744,0,0,0,8.4,5.737V13.4a5.744,5.744,0,0,0,5.737,5.737h.927v2.627a6.638,6.638,0,0,0-9.789,5.845v3.769a6.643,6.643,0,0,0,3.353,5.766,1.186,1.186,0,0,1-.438.906c-.025.013-.05.026-.074.041A.981.981,0,0,0,8,38.178a1.183,1.183,0,0,1-.348.124l-2.563.474A6.224,6.224,0,0,0,0,44.9v4.128A.977.977,0,0,0,.977,50H22.852a.977.977,0,0,0,.977-.977V44.9a6.224,6.224,0,0,0-5.092-6.12L16.171,38.3a1.181,1.181,0,0,1-.344-.122.986.986,0,0,0-.114-.084c-.026-.016-.052-.03-.079-.044a1.186,1.186,0,0,1-.434-.9,6.643,6.643,0,0,0,3.354-5.767V27.613a6.617,6.617,0,0,0-1.89-4.633c.022-.018.045-.036.065-.056l3.783-3.783h8.974l3.783,3.783c.02.02.042.039.064.058a6.617,6.617,0,0,0-1.888,4.632v3.769A6.643,6.643,0,0,0,34.8,37.148a1.186,1.186,0,0,1-.438.906c-.025.013-.05.026-.074.041a.981.981,0,0,0-.111.082,1.183,1.183,0,0,1-.348.124l-2.563.474a6.224,6.224,0,0,0-5.092,6.12v4.128a.977.977,0,0,0,.977.977H34.18a.977.977,0,0,0,0-1.953H28.125V44.9a4.271,4.271,0,0,1,3.494-4.2l2.563-.474c.084-.015.166-.035.247-.056l2.83,4.525a.977.977,0,0,0,1.656,0l2.828-4.525c.08.022.162.041.245.056l2.564.474a4.271,4.271,0,0,1,3.494,4.2v3.151h-6.3a.977.977,0,1,0,0,1.953h7.275A.977.977,0,0,0,50,49.023V44.9A6.224,6.224,0,0,0,44.908,38.776ZM7.227,27.613a4.688,4.688,0,0,1,9.362-.35l-2.3-1.354a.976.976,0,0,0-1.243.215A5.234,5.234,0,0,1,9.019,28H7.227v-.387ZM21.875,44.9v3.151H1.953V44.9a4.271,4.271,0,0,1,3.494-4.2l2.563-.474c.084-.015.166-.035.247-.056l2.83,4.525a.977.977,0,0,0,1.656,0l2.828-4.525c.08.022.162.041.245.056l2.564.474A4.271,4.271,0,0,1,21.875,44.9Zm-7.938-5.8-2.022,3.235L9.891,39.1a3.138,3.138,0,0,0,.6-1.227,6.606,6.606,0,0,0,2.842,0A3.14,3.14,0,0,0,13.937,39.1ZM11.914,36.07a4.693,4.693,0,0,1-4.687-4.687V29.953H9.019a7.18,7.18,0,0,0,4.946-1.967L16.6,29.535v1.847A4.693,4.693,0,0,1,11.914,36.07ZM42.76,27.263l-2.3-1.354a.976.976,0,0,0-1.243.215A5.234,5.234,0,0,1,35.191,28H33.4v-.387a4.688,4.688,0,0,1,9.362-.35ZM33.4,31.382V29.953h1.793a7.18,7.18,0,0,0,4.946-1.967l2.637,1.549v1.847a4.687,4.687,0,0,1-9.375,0Zm4.688,10.949L36.063,39.1a3.138,3.138,0,0,0,.6-1.227,6.606,6.606,0,0,0,2.842,0,3.137,3.137,0,0,0,.6,1.228Z" fill="#2e3641"/>
      <path id="Trazado_35763" data-name="Trazado 35763" d="M230.984,62.495a.977.977,0,0,0-1.381,1.381l1.984,1.984a.977.977,0,0,0,1.381,0l4.04-4.04a.977.977,0,1,0-1.381-1.381l-3.349,3.349Z" transform="translate(-206.923 -54.279)" fill="#2e3641"/>
      <path id="Trazado_35764" data-name="Trazado 35764" d="M201.924,1.524a.97.97,0,0,0,.438.359.919.919,0,0,0,.183.056.963.963,0,0,0,.19.02.979.979,0,0,0,.191-.02.915.915,0,0,0,.183-.056.967.967,0,0,0,.169-.09,1.019,1.019,0,0,0,.149-.121.991.991,0,0,0,.121-.148.971.971,0,0,0,.09-.169.985.985,0,0,0,.056-.183.957.957,0,0,0,.02-.19.984.984,0,0,0-.286-.69,1.027,1.027,0,0,0-.149-.121,1.05,1.05,0,0,0-.169-.09.909.909,0,0,0-.183-.056.963.963,0,0,0-.382,0,.91.91,0,0,0-.183.056,1.006,1.006,0,0,0-.169.09.936.936,0,0,0-.149.121.926.926,0,0,0-.121.149.988.988,0,0,0-.09.168,1.019,1.019,0,0,0-.056.184.938.938,0,0,0,0,.381.985.985,0,0,0,.146.351Z" transform="translate(-182.056 -0.006)" fill="#2e3641"/>
      <path id="Trazado_35765" data-name="Trazado 35765" d="M200.081,36a6.053,6.053,0,1,0,4.281,10.336.977.977,0,1,0-1.381-1.381,4.1,4.1,0,1,1-2.9-7,.977.977,0,1,0,0-1.953Z" transform="translate(-175.08 -32.484)" fill="#2e3641"/>
    </g>
  </g>
</svg>
