<svg xmlns="http://www.w3.org/2000/svg" xmlns:xlink="http://www.w3.org/1999/xlink" width="50" height="50" viewBox="0 0 50 50">
  <defs>
    <linearGradient id="linear-gradient" x1="0.5" x2="0.5" y2="1" gradientUnits="objectBoundingBox">
      <stop offset="0" stop-color="#77e182"/>
      <stop offset="1" stop-color="#399c33"/>
    </linearGradient>
    <clipPath id="clip-ocupacion">
      <rect width="50" height="50"/>
    </clipPath>
  </defs>
  <g id="ocupacion" clip-path="url(#clip-ocupacion)">
    <rect width="50" height="50" fill="#fff"/>
    <g id="surface1" transform="translate(0 3)">
      <path id="Trazado_35777" data-name="Trazado 35777" d="M129.431,11.972v-3h-2.978a3.418,3.418,0,0,0-3.418,3.418v2.879h3.1A3.294,3.294,0,0,0,129.431,11.972Zm0,0" transform="translate(-111.02 -8.093)" fill="#267e3d"/>
      <path id="Trazado_35778" data-name="Trazado 35778" d="M313.776,11.972v-3H310.9a3.418,3.418,0,0,0-3.418,3.418v2.879h3A3.294,3.294,0,0,0,313.776,11.972Zm0,0" transform="translate(-277.456 -8.093)" fill="#267e3d"/>
      <path id="Trazado_35779" data-name="Trazado 35779" d="M129.431,72.2l-6.4.158V76a5.117,5.117,0,0,0,3.2,4.743,5.117,5.117,0,0,0,3.2-4.743Zm0,0" transform="translate(-111.02 -65.152)" fill="#fff"/>
      <path id="Trazado_35780" data-name="Trazado 35780" d="M312.814,72.2l-6.4.158V76a5.117,5.117,0,0,0,3.2,4.743,5.117,5.117,0,0,0,3.2-4.743Zm0,0" transform="translate(-276.494 -65.152)" fill="#fff"/>
      <path id="Trazado_35781" data-name="Trazado 35781" d="M309.562,163.5h-2.9a6.211,6.211,0,0,0-6.211,6.211v10.976h14.634V169.025A5.521,5.521,0,0,0,309.562,163.5Zm0,0" transform="translate(-271.108 -147.537)" fill="url(#linear-gradient)"/>
      <path id="Trazado_35782" data-name="Trazado 35782" d="M289.2,168.412l-3.281-4.908h6.915Zm0,0" transform="translate(-257.996 -147.537)" fill="#fff"/>
      <path id="Trazado_35783" data-name="Trazado 35783" d="M91.069,163.5h-6.7a6.211,6.211,0,0,0-6.211,6.211v10.976H96.59V169.025A5.521,5.521,0,0,0,91.069,163.5Zm0,0" transform="translate(-70.524 -147.537)" fill="url(#linear-gradient)"/>
      <path id="Trazado_35784" data-name="Trazado 35784" d="M232.512,298.779a2.34,2.34,0,0,1,.212-.322A2.34,2.34,0,0,0,232.512,298.779Zm0,0" transform="translate(-209.806 -269.311)" fill="#ffb954"/>
      <path id="Trazado_35785" data-name="Trazado 35785" d="M235.94,359.844v-7.207h-6.307v7.207a2.33,2.33,0,0,0,2.33,2.33h6.307A2.33,2.33,0,0,1,235.94,359.844Zm0,0" transform="translate(-207.208 -318.2)" fill="#fff"/>
      <path id="Trazado_35786" data-name="Trazado 35786" d="M243.625,290.938c.04-.018.08-.035.121-.051C243.7,290.9,243.665,290.92,243.625,290.938Zm0,0" transform="translate(-219.833 -262.48)" fill="#ffb954"/>
      <path id="Trazado_35787" data-name="Trazado 35787" d="M238.711,293.448c.045-.036.092-.071.14-.1C238.8,293.377,238.756,293.412,238.711,293.448Zm0,0" transform="translate(-215.399 -264.697)" fill="#ffb954"/>
      <path id="Trazado_35788" data-name="Trazado 35788" d="M240.148,292.265c.062-.042.126-.081.192-.117Q240.241,292.2,240.148,292.265Zm0,0" transform="translate(-216.696 -263.618)" fill="#ffb954"/>
      <path id="Trazado_35789" data-name="Trazado 35789" d="M230.117,305.257a2.329,2.329,0,0,1,.094-.331A2.329,2.329,0,0,0,230.117,305.257Zm0,0" transform="translate(-207.645 -275.148)" fill="#ffb954"/>
      <path id="Trazado_35790" data-name="Trazado 35790" d="M234.684,296.473a2.348,2.348,0,0,1,.189-.215A2.348,2.348,0,0,0,234.684,296.473Zm0,0" transform="translate(-211.766 -267.327)" fill="#ffb954"/>
      <path id="Trazado_35791" data-name="Trazado 35791" d="M236.621,294.587a2.308,2.308,0,0,1,.2-.181A2.353,2.353,0,0,0,236.621,294.587Zm0,0" transform="translate(-213.513 -265.655)" fill="#ffb954"/>
      <path id="Trazado_35792" data-name="Trazado 35792" d="M242.117,291.478c.048-.026.1-.049.147-.072C242.214,291.429,242.165,291.453,242.117,291.478Zm0,0" transform="translate(-218.473 -262.948)" fill="#ffb954"/>
      <path id="Trazado_35793" data-name="Trazado 35793" d="M249.855,289.3a2.306,2.306,0,0,1,.355-.027A2.337,2.337,0,0,0,249.855,289.3Zm0,0" transform="translate(-225.455 -261.021)" fill="#ffb954"/>
      <path id="Trazado_35794" data-name="Trazado 35794" d="M244.859,290.4c.049-.019.1-.037.15-.053C244.958,290.36,244.908,290.378,244.859,290.4Zm0,0" transform="translate(-220.947 -261.99)" fill="#ffb954"/>
      <path id="Trazado_35795" data-name="Trazado 35795" d="M235.94,291.6a2.314,2.314,0,0,1,.141-.8,2.3,2.3,0,0,1,.14-.309,2.4,2.4,0,0,1,.4-.537,2.43,2.43,0,0,1,.2-.181c.046-.036.092-.071.141-.1s.126-.081.192-.117c.048-.026.1-.05.147-.072s.08-.035.121-.051.1-.037.15-.053a2.319,2.319,0,0,1,.338-.078,2.363,2.363,0,0,1,.355-.027h-6.307a2.361,2.361,0,0,0-.355.027,2.3,2.3,0,0,0-.338.078c-.051.016-.1.034-.15.053s-.081.033-.121.051-.1.046-.147.072q-.1.054-.192.117c-.048.032-.095.067-.14.1a2.435,2.435,0,0,0-.2.181,2.409,2.409,0,0,0-.189.215,2.333,2.333,0,0,0-.212.322,2.3,2.3,0,0,0-.14.309,2.279,2.279,0,0,0-.094.331,2.35,2.35,0,0,0-.047.469v3.859h6.307Zm0,0" transform="translate(-207.208 -261.024)" fill="#fff"/>
      <path id="Trazado_35796" data-name="Trazado 35796" d="M509.828,298.457a2.358,2.358,0,0,1,.212.322A2.358,2.358,0,0,0,509.828,298.457Zm0,0" transform="translate(-460.04 -269.311)" fill="#ffb954"/>
      <path id="Trazado_35797" data-name="Trazado 35797" d="M309.457,359.844v-7.207H294.215v7.207a2.33,2.33,0,0,0,2.33,2.33h10.583A2.33,2.33,0,0,0,309.457,359.844Zm0,0" transform="translate(-265.483 -318.2)" fill="#267e3d"/>
      <path id="Trazado_35798" data-name="Trazado 35798" d="M297.1,298.779a2.27,2.27,0,0,1,.212-.322A2.27,2.27,0,0,0,297.1,298.779Zm0,0" transform="translate(-268.085 -269.311)" fill="#ffb954"/>
      <path id="Trazado_35799" data-name="Trazado 35799" d="M505.8,294.406a2.442,2.442,0,0,1,.2.181A2.442,2.442,0,0,0,505.8,294.406Zm0,0" transform="translate(-456.406 -265.655)" fill="#ffb954"/>
      <path id="Trazado_35800" data-name="Trazado 35800" d="M301.2,294.587a2.427,2.427,0,0,1,.2-.181A2.427,2.427,0,0,0,301.2,294.587Zm0,0" transform="translate(-271.789 -265.655)" fill="#ffb954"/>
      <path id="Trazado_35801" data-name="Trazado 35801" d="M314.8,289.273a2.361,2.361,0,0,0-.355.027A2.31,2.31,0,0,1,314.8,289.273Zm0,0" transform="translate(-283.734 -261.024)" fill="#ffb954"/>
      <path id="Trazado_35802" data-name="Trazado 35802" d="M437.813,292.148c.066.036.13.075.192.117C437.943,292.223,437.879,292.184,437.813,292.148Zm0,0" transform="translate(-395.058 -263.618)" fill="#ffb954"/>
      <path id="Trazado_35803" data-name="Trazado 35803" d="M445.246,298.457a2.317,2.317,0,0,1,.212.322A2.317,2.317,0,0,0,445.246,298.457Zm0,0" transform="translate(-401.765 -269.311)" fill="#ffb954"/>
      <path id="Trazado_35804" data-name="Trazado 35804" d="M439.777,293.344c.048.033.1.068.141.1C439.872,293.412,439.825,293.377,439.777,293.344Zm0,0" transform="translate(-396.83 -264.697)" fill="#ffb954"/>
      <path id="Trazado_35805" data-name="Trazado 35805" d="M448.848,304.926a2.286,2.286,0,0,1,.094.331A2.286,2.286,0,0,0,448.848,304.926Zm0,0" transform="translate(-405.015 -275.148)" fill="#ffb954"/>
      <path id="Trazado_35806" data-name="Trazado 35806" d="M435.07,290.887c.041.016.081.033.121.051C435.151,290.92,435.111,290.9,435.07,290.887Zm0,0" transform="translate(-392.583 -262.48)" fill="#ffb954"/>
      <path id="Trazado_35807" data-name="Trazado 35807" d="M426.438,289.273a2.368,2.368,0,0,1,.355.027A2.317,2.317,0,0,0,426.438,289.273Zm0,0" transform="translate(-384.794 -261.024)" fill="#ffb954"/>
      <path id="Trazado_35808" data-name="Trazado 35808" d="M443.309,296.258a2.41,2.41,0,0,1,.189.215A2.41,2.41,0,0,0,443.309,296.258Zm0,0" transform="translate(-400.017 -267.327)" fill="#ffb954"/>
      <path id="Trazado_35809" data-name="Trazado 35809" d="M441.219,294.406a2.442,2.442,0,0,1,.2.181A2.442,2.442,0,0,0,441.219,294.406Zm0,0" transform="translate(-398.131 -265.655)" fill="#ffb954"/>
      <path id="Trazado_35810" data-name="Trazado 35810" d="M433.535,290.344c.051.016.1.034.15.053C433.636,290.378,433.586,290.36,433.535,290.344Zm0,0" transform="translate(-391.198 -261.99)" fill="#ffb954"/>
      <path id="Trazado_35811" data-name="Trazado 35811" d="M436.3,291.406c.05.023.1.047.147.072C436.4,291.453,436.355,291.429,436.3,291.406Zm0,0" transform="translate(-393.697 -262.948)" fill="#ffb954"/>
      <path id="Trazado_35812" data-name="Trazado 35812" d="M295.856,289.375c-.051.016-.1.034-.15.053s-.081.033-.12.051-.1.047-.147.072c-.066.036-.13.075-.192.117s-.095.068-.141.1a2.437,2.437,0,0,0-.2.181,2.34,2.34,0,0,0-.189.215,2.29,2.29,0,0,0-.212.322,2.352,2.352,0,0,0-.14.309,2.328,2.328,0,0,0-.141.8v3.859h15.242V291.6a2.355,2.355,0,0,0-.047-.47,2.329,2.329,0,0,0-.234-.641,2.408,2.408,0,0,0-.4-.537,2.322,2.322,0,0,0-.2-.181c-.045-.036-.092-.071-.14-.1s-.126-.081-.192-.117c-.048-.026-.1-.05-.147-.072s-.08-.035-.121-.051-.1-.037-.15-.053a2.341,2.341,0,0,0-.693-.1H296.549a2.344,2.344,0,0,0-.693.1Zm0,0" transform="translate(-265.487 -261.021)" fill="#267e3d"/>
      <path id="Trazado_35813" data-name="Trazado 35813" d="M326.511,345.694a1.456,1.456,0,0,1-1.456-1.456V342.2h2.912v2.039A1.456,1.456,0,0,1,326.511,345.694Zm0,0" transform="translate(-293.311 -308.781)" fill="#267e3d"/>
      <path id="Trazado_35814" data-name="Trazado 35814" d="M105.816,168.412l-3.281-4.908h6.915Zm0,0" transform="translate(-92.522 -147.537)" fill="#fff"/>
      <path id="Trazado_35815" data-name="Trazado 35815" d="M180.438,330.535a.877.877,0,1,0,.62.257A.882.882,0,0,0,180.438,330.535Zm0,0" transform="translate(-162.028 -298.256)" fill="#2e3641"/>
      <path id="Trazado_35816" data-name="Trazado 35816" d="M38.453,15.091H35.433A5.974,5.974,0,0,0,37.2,10.85V.876A.876.876,0,0,0,36.319,0H29.5A4.3,4.3,0,0,0,25.21,4.294V7.174c0,.006,0,.012,0,.018s0,.012,0,.018V10.85a5.973,5.973,0,0,0,1.763,4.24H17.524a5.974,5.974,0,0,0,1.762-4.24V.876A.876.876,0,0,0,18.411,0H11.6A4.3,4.3,0,0,0,7.3,4.294V7.174c0,.006,0,.012,0,.018s0,.012,0,.018V10.85a5.974,5.974,0,0,0,1.762,4.24H7.087A7.1,7.1,0,0,0,0,22.178V33.155a.876.876,0,0,0,.876.876h13.84a.876.876,0,1,0,0-1.752h-9V26.623a.876.876,0,0,0-1.752,0v5.656H1.752v-10.1a5.341,5.341,0,0,1,5.335-5.335H9.545l2.873,4.3v5.221a.876.876,0,0,0,1.752,0v-5.2l3.2-4.321h3.175a4.651,4.651,0,0,1,4.645,4.645v3.593a.876.876,0,1,0,1.752,0V21.488a6.378,6.378,0,0,0-2.005-4.645h2.341L30.3,21.362a.876.876,0,0,0,.707.389h.021a.875.875,0,0,0,.7-.355L35.1,16.843h3.352A4.65,4.65,0,0,1,43.1,21.488v3.594a.876.876,0,0,0,1.752,0V21.488A6.4,6.4,0,0,0,38.453,15.091Zm-29.4-10.8A2.545,2.545,0,0,1,11.6,1.752h5.939V3.88A2.421,2.421,0,0,1,15.117,6.3H9.053Zm0,6.556v-2.8h6.064a4.147,4.147,0,0,0,2.418-.776V10.85a4.241,4.241,0,1,1-8.482,0Zm4.277,8.5-1.679-2.511H15.19ZM26.962,4.294A2.545,2.545,0,0,1,29.5,1.752h5.939V3.88A2.421,2.421,0,0,1,33.025,6.3H26.962Zm0,6.556v-2.8h6.064a4.146,4.146,0,0,0,2.418-.776V10.85a4.241,4.241,0,1,1-8.482,0Zm4.1,8.5-1.678-2.511h3.537Zm0,0" transform="translate(0)" fill="#2e3641"/>
      <path id="Trazado_35817" data-name="Trazado 35817" d="M240.756,245.43h-4.074v-1.685a2.092,2.092,0,0,0-2.09-2.089H230.03a2.092,2.092,0,0,0-2.089,2.089v1.685h-4.075a3.209,3.209,0,0,0-3.206,3.205V259.7a3.21,3.21,0,0,0,3.206,3.206h16.89a3.21,3.21,0,0,0,3.206-3.206V248.635A3.209,3.209,0,0,0,240.756,245.43Zm-11.063-1.685a.338.338,0,0,1,.337-.338h4.562a.338.338,0,0,1,.337.338v1.685h-5.237Zm-5.827,3.437h16.89a1.455,1.455,0,0,1,1.454,1.453v2.983h-7.566v-.143a.876.876,0,0,0-.876-.876h-2.912a.876.876,0,0,0-.876.876v.143h-7.567v-2.983A1.455,1.455,0,0,1,223.866,247.182Zm9.025,5.169v1.162a.58.58,0,0,1-1.16,0v-1.162Zm7.865,8.8h-16.89a1.455,1.455,0,0,1-1.454-1.454V253.37h7.566v.143a2.332,2.332,0,0,0,4.664,0v-.143h7.566V259.7A1.455,1.455,0,0,1,240.756,261.155Zm0,0" transform="translate(-199.111 -218.057)" fill="#2e3641"/>
    </g>
  </g>
</svg>
