<svg xmlns="http://www.w3.org/2000/svg" viewBox="0 0 168 117"><defs><style>.cls-3,.cls-5{fill:#fff}.cls-5{stroke:#f3f3f3}.cls-7{fill:#d5d5d5}.cls-8{fill:#282827}.cls-9{stroke:none}.cls-10{fill:none}</style><clipPath id="clip-path"><path id="Rectangle_16" data-name="Rectangle 16" transform="translate(1908 28)" d="M0 0h168v117H0z"/></clipPath><clipPath id="clip-imagen_particular"><path d="M0 0h168v117H0z"/></clipPath></defs><g id="imagen_particular" clip-path="url(#clip-imagen_particular)"><path class="cls-3" d="M0 0h168v117H0z"/><g id="imagen_particular-2" data-name="imagen_particular" transform="translate(-1908 -28)" clip-path="url(#clip-path)"><path id="Rectangle_10" data-name="Rectangle 10" class="cls-3" transform="translate(1908 28)" d="M0 0h168v117H0z"/><g id="Group_5" data-name="Group 5" transform="translate(1833 14)"><circle id="Ellipse_3" data-name="Ellipse 3" cx="58.5" cy="58.5" r="58.5" transform="translate(102 14)" fill="#f3f3f3"/><path id="Path_31" data-name="Path 31" class="cls-3" d="M0 0l-6.9-.5 2.4-5h44.1v-33l-1.8-.7v-2h11.6v2l-1.4.7.822 33H62.8l1.7 4.4L58 0v44H0z" transform="translate(131 70)"/><g id="Rectangle_11" data-name="Rectangle 11" class="cls-5" transform="translate(75 37)"><rect class="cls-9" width="55" height="16" rx="8"/><rect class="cls-10" x=".5" y=".5" width="54" height="15" rx="7.5"/></g><g id="Rectangle_12" data-name="Rectangle 12" class="cls-5" transform="translate(198 48)"><rect class="cls-9" width="45" height="16" rx="8"/><rect class="cls-10" x=".5" y=".5" width="44" height="15" rx="7.5"/></g><g id="Rectangle_13" data-name="Rectangle 13" class="cls-5" transform="translate(97 25)"><rect class="cls-9" width="33" height="10" rx="5"/><rect class="cls-10" x=".5" y=".5" width="32" height="9" rx="4.5"/></g><g id="Rectangle_14" data-name="Rectangle 14" class="cls-5" transform="translate(175 30)"><rect class="cls-9" width="33" height="10" rx="5"/><rect class="cls-10" x=".5" y=".5" width="32" height="9" rx="4.5"/></g><path id="Path_32" data-name="Path 32" d="M.4-.2h49.9l8.2 21.7H-8z" transform="translate(135 42)" fill="#8b8b8b"/><path id="Rectangle_15" data-name="Rectangle 15" class="cls-7" transform="translate(132 106)" d="M0 0h57v9H0z"/><path id="Path_33" data-name="Path 33" class="cls-7" d="M18.5-.2h17.8v28.1H18.5z" transform="translate(133 86)"/><g id="Group_4" data-name="Group 4" transform="translate(112 28)"><path id="Path_34" data-name="Path 34" class="cls-8" d="M65.83 143.06h-1.338v-11.226a.728.728 0 0 0-.734-.734h-9.11a.728.728 0 0 0-.734.734v11.226h-1.08a.734.734 0 1 0 0 1.468h13a.734.734 0 1 0 0-1.468zm-10.492 0v-4.534h3.2v4.534zm0-10.492h3.2v4.532h-3.157v-4.534zm4.62 0h3.152v4.532h-3.152zm0 5.958h3.152v4.534h-3.152z" transform="translate(-29.605 -74.495)"/><path id="Path_35" data-name="Path 35" class="cls-8" d="M152.135 143.06v-11.226a.728.728 0 0 0-.734-.734h-9.154a.728.728 0 0 0-.734.734v11.226h-1.079a.734.734 0 0 0 0 1.468h12.953a.734.734 0 1 0 0-1.468zm-9.154 0v-4.534h3.152v4.534zm7.729-10.492v4.532h-3.11v-4.534zm-4.577 0v4.532h-3.152v-4.534h3.152zm1.425 5.958h3.152v4.534h-3.152z" transform="translate(-79.381 -74.495)"/><path id="Path_36" data-name="Path 36" class="cls-8" d="M66.53 104.2h-13a.728.728 0 0 0-.734.734v4.275a.728.728 0 0 0 .734.734h13a.728.728 0 0 0 .734-.734v-4.275a.728.728 0 0 0-.734-.734zm-12.306 1.425h5.138v2.85h-5.137zm11.615 2.85h-5.051v-2.85h5.052z" transform="translate(-30.002 -59.209)"/><path id="Path_37" data-name="Path 37" class="cls-8" d="M96.334 109.9h13.04a.674.674 0 0 0 .691-.648v-4.318a.728.728 0 0 0-.734-.734h-13a.728.728 0 0 0-.734.734v4.275a.785.785 0 0 0 .737.691zm12.306-1.425h-5.052v-2.85h5.012v2.85zm-11.572-2.85h5.138v2.85h-5.138z" transform="translate(-54.323 -59.209)"/><path id="Path_38" data-name="Path 38" class="cls-8" d="M139.234 109.843h13a.728.728 0 0 0 .734-.734v-4.275a.728.728 0 0 0-.734-.734h-13a.728.728 0 0 0-.734.734v4.275a.789.789 0 0 0 .734.734zm12.306-1.425h-5.009v-2.85h5.009zm-11.572-2.85h5.138v2.85h-5.138z" transform="translate(-78.699 -59.152)"/><path id="Path_39" data-name="Path 39" class="cls-8" d="M.734 86.7h95.12a.734.734 0 0 0 0-1.468H77.5v-18.48a9.339 9.339 0 0 1 5.7 4.663.726.726 0 0 0 .734.389 12.388 12.388 0 0 1 7.988 1.382.7.7 0 0 0 .648-1.252 13.875 13.875 0 0 0-6.692-1.684c-.561 0-1.123.043-1.727.086a10.945 10.945 0 0 0-6.736-5.052V41.968h6.52a.825.825 0 0 0 .6-.3.689.689 0 0 0 .086-.648L74.135 13.342a.749.749 0 0 0-.648-.475h-5.915V3.886h.777a.728.728 0 0 0 .734-.734V.734A.728.728 0 0 0 68.35 0H56.433a.728.728 0 0 0-.733.734V3.2a.728.728 0 0 0 .734.734h.777v9.024h-34.2a.649.649 0 0 0-.648.475L11.874 41.018a.689.689 0 0 0 .086.648.755.755 0 0 0 .6.3h6.52V64.9a12.3 12.3 0 0 0-1.123.993A10.885 10.885 0 0 0 9.8 71.2a14.121 14.121 0 0 0-9.152 2.029.706.706 0 0 0-.216.993.689.689 0 0 0 .6.345.7.7 0 0 0 .389-.13 12.535 12.535 0 0 1 8.635-1.77.668.668 0 0 0 .734-.389 9.491 9.491 0 0 1 7.556-5.052.531.531 0 0 0 .432-.216 1.994 1.994 0 0 1 .3-.3v10.923c0 .043-.043.13-.043.173a.26.26 0 0 0 .043.173v7.167H.734a.778.778 0 0 0 0 1.554zm19.775-21.027V42.011h55.613v35.233H58.03V57.469a.728.728 0 0 0-.734-.734h-18a.728.728 0 0 0-.734.734v19.775H20.509zM15.026 36.7h66.536l1.468 3.886H13.558zM57.21 1.425H67.7v1.036H57.21zm1.511 2.461h7.513v8.981h-7.513zm14.335 10.449L81 35.276H15.587l7.945-20.941h49.524zm-16.494 70.94H40.025V58.16h16.537zm19.516 0H57.987v-6.606h18.091zm-55.569-6.606H38.6v6.606H20.509z"/><circle id="Ellipse_4" data-name="Ellipse 4" class="cls-8" cx="1.382" cy="1.382" r="1.382" transform="translate(41.537 70.724)"/><path id="Path_40" data-name="Path 40" class="cls-8" d="M101.215 137.2h-5.181a.728.728 0 0 0-.734.734v8.333a.728.728 0 0 0 .734.734h5.181a.728.728 0 0 0 .734-.734v-8.333a.789.789 0 0 0-.734-.734zm-.734 8.376h-3.713v-6.908h3.713z" transform="translate(-54.152 -77.961)"/><path id="Path_41" data-name="Path 41" class="cls-8" d="M118.672 137.2h-5.138a.728.728 0 0 0-.734.734v8.333a.728.728 0 0 0 .734.734h5.138a.728.728 0 0 0 .734-.734v-8.333a.757.757 0 0 0-.734-.734zm-.691 8.376h-3.713v-6.908h3.713z" transform="translate(-64.096 -77.961)"/><path id="Path_42" data-name="Path 42" class="cls-8" d="M101.215 173h-5.181a.728.728 0 0 0-.734.734v8.333a.728.728 0 0 0 .734.734h5.181a.728.728 0 0 0 .734-.734v-8.376a.749.749 0 0 0-.734-.691zm-.734 3.972v4.361h-3.713v-6.908h3.713z" transform="translate(-54.152 -98.303)"/><path id="Path_43" data-name="Path 43" class="cls-8" d="M118.672 173h-5.138a.728.728 0 0 0-.734.734v8.333a.728.728 0 0 0 .734.734h5.138a.728.728 0 0 0 .734-.734v-8.376a.719.719 0 0 0-.734-.691zm-.691 3.972v4.361h-3.713v-6.908h3.713z" transform="translate(-64.096 -98.303)"/></g></g></g></g></svg>