<svg xmlns="http://www.w3.org/2000/svg" xmlns:xlink="http://www.w3.org/1999/xlink" width="41.809" height="50" viewBox="0 0 41.809 50">
  <defs>
    <linearGradient id="linear-gradient" x1="0.5" x2="0.5" y2="1" gradientUnits="objectBoundingBox">
      <stop offset="0" stop-color="#77e182"/>
      <stop offset="1" stop-color="#399c33"/>
    </linearGradient>
  </defs>
  <g id="stopclock" transform="translate(-41.935)">
    <rect id="Rect치ngulo_7541" data-name="Rect치ngulo 7541" width="3.48" height="4.269" transform="translate(63.364 4.883)" fill="#fff"/>
    <rect id="Rect치ngulo_7542" data-name="Rect치ngulo 7542" width="3.611" height="3.29" transform="translate(76.739 14.77) rotate(-45)" fill="#267e3d"/>
    <path id="Trazado_35729" data-name="Trazado 35729" d="M150.375,97.912a19.951,19.951,0,0,0,0,39.075,19.951,19.951,0,0,0,0-39.075Z" transform="translate(-83.495 -88.35)" fill="url(#linear-gradient)"/>
    <circle id="Elipse_118" data-name="Elipse 118" cx="14.063" cy="14.063" r="14.063" transform="translate(48.78 15.036)" fill="#fff"/>
    <path id="Trazado_35730" data-name="Trazado 35730" d="M244,11.954h0A1.953,1.953,0,0,0,242.048,10h-6.055a1.953,1.953,0,0,0-1.953,1.953h0a1.953,1.953,0,0,0,1.953,1.953h6.055A1.953,1.953,0,0,0,244,11.954Z" transform="translate(-173.344 -9.024)" fill="#267e3d"/>
    <path id="Trazado_35731" data-name="Trazado 35731" d="M166.505,240.461a4.261,4.261,0,0,0-4.256,4.257v1.307a.977.977,0,0,0,.977.977h5.653a.977.977,0,0,0,0-1.953H164.2v-.33a2.306,2.306,0,0,1,2.3-2.3,3.35,3.35,0,1,0,0-6.7h-3.28a.977.977,0,0,0,0,1.953h3.28a1.4,1.4,0,1,1,0,2.793Z" transform="translate(-108.565 -212.696)" fill="#2e3641"/>
    <path id="Trazado_35732" data-name="Trazado 35732" d="M259.706,236.107a.977.977,0,0,0-.977.977v4.666a.977.977,0,0,0,.977.977h4.676v3.652a.977.977,0,1,0,1.953,0v-9.333a.977.977,0,0,0-1.953,0v3.727h-3.7v-3.69A.976.976,0,0,0,259.706,236.107Z" transform="translate(-195.623 -213.015)" fill="#2e3641"/>
    <path id="Trazado_35733" data-name="Trazado 35733" d="M144.365,172.629a.977.977,0,0,0-.216.716l.36,3.612a.977.977,0,0,0,.971.88q.049,0,.1,0a.977.977,0,0,0,.875-1.069l-.129-1.289a15.041,15.041,0,1,0,12.569-26.785.977.977,0,1,0-.495,1.89,13.089,13.089,0,1,1-10.8,23.4l1.234-.123a.977.977,0,0,0-.194-1.944l-3.612.36A.977.977,0,0,0,144.365,172.629Z" transform="translate(-92.228 -134.14)" fill="#2e3641"/>
    <path id="Trazado_35734" data-name="Trazado 35734" d="M80.159,17.384l2.151-2.151a.977.977,0,0,0,0-1.381l-4.16-4.16a.977.977,0,0,0-1.381,0l-2.142,2.142a20.866,20.866,0,0,0-6.8-3.039V5.86H68.7A2.93,2.93,0,0,0,68.7,0H56.983a2.93,2.93,0,1,0,0,5.86h.882V8.79a20.847,20.847,0,0,0-5.643,2.3.977.977,0,0,0,.994,1.682,18.947,18.947,0,1,1-6.7,6.7.977.977,0,1,0-1.682-.994,20.9,20.9,0,1,0,35.322-1.094ZM56.007,2.93a.978.978,0,0,1,.977-.977H68.7a.977.977,0,0,1,0,1.953H56.984A.978.978,0,0,1,56.007,2.93Zm3.812,5.48V5.86h6.049V8.412A20.9,20.9,0,0,0,59.819,8.41ZM76.2,13.023l1.259-1.259,2.779,2.779-1.263,1.263q-.637-.77-1.351-1.486Q76.936,13.633,76.2,13.023Z" fill="#2e3641"/>
    <path id="Trazado_35735" data-name="Trazado 35735" d="M102.75,145.531a.974.974,0,0,0,.691-.286l.014-.014a.977.977,0,0,0-1.381-1.381l-.014.014a.977.977,0,0,0,.691,1.667Z" transform="translate(-53.995 -129.543)" fill="#2e3641"/>
    <path id="Trazado_35736" data-name="Trazado 35736" d="M247.046,143.967h-.03a.977.977,0,0,0,0,1.953h.025a.977.977,0,0,0,.006-1.953Z" transform="translate(-184.172 -129.908)" fill="#2e3641"/>
  </g>
</svg>
